<svg width="16" height="16" viewBox="0 0 16 16" fill="none" xmlns="http://www.w3.org/2000/svg">
<path fill-rule="evenodd" clip-rule="evenodd" d="M7.17383 4.21106L7.18063 6.44093L9.65537 6.41968V12.4398L9.65533 12.4398H12.1104L12.1117 6.41754L12.1117 6.41745L13.0866 4.21252L7.17383 4.21106ZM14.3811 4.21276H14.3729L14.3641 6.41975L12.1118 6.41742L13.0867 4.21259H14.3812V4.21276H14.3811Z" fill="#5E2B5B"/>
<path fill-rule="evenodd" clip-rule="evenodd" d="M7.22452 10.2311C6.92361 10.6132 6.48071 10.7964 5.91832 10.7964C5.3709 10.7964 4.93886 10.6044 4.62098 10.2189C4.55649 10.1416 4.49872 10.0533 4.44775 9.95557C4.44775 9.95557 4.39893 9.8538 4.3595 9.75875L4.50483 10.1455V10.1455L4.3595 9.75866L4.34934 9.73234L4.33031 9.68339L4.28364 9.56235L4.33031 9.68347C4.3248 9.66919 4.32075 9.6556 4.31739 9.64399C4.21692 9.28913 4.1693 9.02108 4.14408 8.49305C4.14408 7.51709 4.29768 6.8405 4.60608 6.46388C4.9144 6.08648 5.34981 5.89783 5.9122 5.89783C6.45902 5.89783 6.89166 6.08992 7.20954 6.4754C7.27412 6.55274 7.32913 6.64229 7.38277 6.73873C7.42419 6.81409 7.51321 7.05092 7.51321 7.05092C7.62867 7.40173 7.68636 7.84287 7.68636 8.37425C7.63349 9.35288 7.52062 9.85441 7.22452 10.2311V10.2311ZM7.18059 6.44092L7.17379 4.21105H7.17448C6.74812 4.13801 6.21181 4.11435 5.74989 4.12924C4.55234 4.16795 3.41738 4.54328 2.64774 5.3108L2.67426 5.38074L2.67288 5.38194L2.64576 5.3108L2.61795 5.34202L2.58937 5.37394L2.56156 5.40654L2.54727 5.42203L2.52755 5.44448L2.50181 5.47777L2.47666 5.5096L2.45281 5.54014L2.43181 5.56741L2.4114 5.59451L2.39237 5.61817L2.3693 5.65017L2.34622 5.68269L2.32987 5.70781L2.31024 5.73568L2.29258 5.7614L2.2708 5.7934L2.24428 5.83616L2.21647 5.8808L2.19813 5.91272L2.17704 5.94945L2.15465 5.98885L2.12684 6.03961L2.10782 6.07496L2.09154 6.10748L2.07863 6.1326L2.0602 6.17002L2.04393 6.20392L2.02697 6.24056L2.01337 6.27179L1.99847 6.305L1.98418 6.33889L1.96515 6.38165L1.94888 6.42388L1.93252 6.46655L1.91694 6.50724L1.90135 6.5494L1.88301 6.59963L1.86803 6.64566L1.85305 6.69452L1.8354 6.7482L1.81844 6.80257L1.8069 6.84532L1.79605 6.88455L1.77634 6.96129L1.76006 7.02649L1.74913 7.07733L1.73828 7.12697L1.7227 7.1982L1.71314 7.25102L1.70367 7.30806L1.69549 7.35356L1.68464 7.41937L1.67577 7.48191L1.66768 7.54093L1.66088 7.59306L1.65606 7.63599L1.65201 7.68072L1.64727 7.72408L1.64392 7.76416L1.63909 7.81371L1.63642 7.85372L1.63367 7.89105L1.631 7.93716L1.62825 7.97518L1.62627 8.01398L1.62489 8.05123L1.62351 8.0927L1.62213 8.13674L1.61946 8.22087V8.35258L1.61877 8.40067L1.62015 8.45435L1.62144 8.5033L1.62282 8.57169L1.6242 8.62803L1.62756 8.68171L1.631 8.74271L1.63298 8.7809L1.63574 8.82082L1.63909 8.86219L1.64323 8.90495L1.64658 8.94435L1.65063 8.99528L1.65743 9.05085L1.66423 9.10315L1.67104 9.1521L1.67922 9.21318L1.69075 9.30471L1.69962 9.3522L1.71116 9.41801L1.72063 9.47298L1.72812 9.51504L1.73148 9.53552L1.73759 9.55917L1.74784 9.60399L1.75662 9.63935L1.76549 9.67737L1.77358 9.70989L1.78176 9.74447L1.79192 9.78792L1.80483 9.83067L1.81844 9.87343L1.8286 9.90809L1.84082 9.94947L1.85443 9.99223L1.86665 10.0274L1.87957 10.0622L1.89386 10.1008L1.90944 10.1435L1.919 10.1694L1.93527 10.2141L1.94819 10.2494L1.95904 10.2752L1.97471 10.3091L1.9896 10.3424L2.00183 10.3709L2.0175 10.4063L2.0317 10.4381L2.04324 10.4631L2.06769 10.5092L2.08336 10.5393L2.09895 10.5683L2.11462 10.5975L2.12616 10.6193L2.14174 10.6491L2.1723 10.7068L2.19538 10.7503L2.21036 10.7787L2.22801 10.81L2.2504 10.8473L2.26744 10.8751L2.28983 10.905L2.30206 10.9253L2.3061 10.9321L2.32375 10.9572L2.32582 10.9599L2.34554 10.9878C2.34554 10.9878 2.81357 11.6854 3.40111 11.9868C4.12107 12.3553 4.56387 12.4347 5.37424 12.4347H5.40549L5.40523 12.4341L5.40549 12.4348C5.48091 12.4395 5.7492 12.453 5.91769 12.453C6.82914 12.453 7.58991 12.2827 8.20061 11.9413C8.81114 11.6006 9.30164 11.2396 9.62494 10.6268C9.6351 10.6072 9.64586 10.5869 9.65534 10.5667V6.41975L7.18059 6.44092Z" fill="#E94429"/>
</svg>
