<svg width="28" height="29" viewBox="0 0 28 29" fill="none" xmlns="http://www.w3.org/2000/svg">
<path d="M23.992 1.94031H4.87256C3.2157 1.94031 1.87256 3.28345 1.87256 4.94031V24.0597C1.87256 25.7166 3.2157 27.0597 4.87256 27.0597H23.992C25.6488 27.0597 26.992 25.7166 26.992 24.0597V4.94031C26.992 3.28345 25.6488 1.94031 23.992 1.94031Z" fill="white"/>
<path d="M23.992 1.94031H4.87256C3.2157 1.94031 1.87256 3.28345 1.87256 4.94031V24.0597C1.87256 25.7166 3.2157 27.0597 4.87256 27.0597H23.992C25.6488 27.0597 26.992 25.7166 26.992 24.0597V4.94031C26.992 3.28345 25.6488 1.94031 23.992 1.94031Z" fill="url(#paint0_linear_1361:31566)"/>
<path d="M23.992 1.94031H4.87256C3.2157 1.94031 1.87256 3.28345 1.87256 4.94031V24.0597C1.87256 25.7166 3.2157 27.0597 4.87256 27.0597H23.992C25.6488 27.0597 26.992 25.7166 26.992 24.0597V4.94031C26.992 3.28345 25.6488 1.94031 23.992 1.94031Z" stroke="#5E2B5B" stroke-width="2"/>
<path d="M18.1974 13.6873L13.5943 9.09102C13.4248 8.91215 13.2131 8.82275 12.9588 8.82275C12.7046 8.82275 12.4929 8.91225 12.3234 9.09102L11.7868 9.62062C11.6126 9.79478 11.5255 10.0065 11.5255 10.256C11.5255 10.5007 11.6126 10.7149 11.7868 10.8984L15.218 14.3228L11.7866 17.7541C11.6125 17.9283 11.5254 18.14 11.5254 18.3895C11.5254 18.6342 11.6125 18.8485 11.7866 19.032L12.3233 19.5615C12.4974 19.7357 12.7093 19.8227 12.9587 19.8227C13.2082 19.8227 13.4201 19.7357 13.5942 19.5615L18.1974 14.9652C18.3716 14.7817 18.4588 14.5675 18.4588 14.3227C18.4588 14.0733 18.3716 13.8614 18.1974 13.6873Z" fill="#5E2B5B"/>
<defs>
<linearGradient id="paint0_linear_1361:31566" x1="14.4323" y1="0.940306" x2="14.4323" y2="28.0597" gradientUnits="userSpaceOnUse">
<stop stop-color="white"/>
<stop offset="1" stop-color="white" stop-opacity="0"/>
</linearGradient>
</defs>
</svg>
