<svg width="125" height="47" viewBox="0 0 125 47" fill="none" xmlns="http://www.w3.org/2000/svg">
<path fill-rule="evenodd" clip-rule="evenodd" d="M73.5591 45.9968L87.0664 12.8795L87.0598 45.9968H73.5591Z" fill="#5E2B5B"/>
<path fill-rule="evenodd" clip-rule="evenodd" d="M99.5008 0.75589H99.5457H99.5467V0.754944H92.4278L87.0668 12.8794L99.4525 12.8922L99.5008 0.75589Z" fill="#5E2B5B"/>
<path fill-rule="evenodd" clip-rule="evenodd" d="M59.9131 0.746704L59.9505 13.0088L73.5591 12.892V45.9969L87.0664 12.8797L92.4274 0.754746L59.9131 0.746704Z" fill="#5E2B5B"/>
<path fill-rule="evenodd" clip-rule="evenodd" d="M124.541 45.9986H112.039L108.768 37.7769H90.372L87.0592 45.9986L87.0663 13.59V12.8809H87.3617L99.4525 12.8922L93.4537 28.2789H105.212L99.4525 12.8922L99.5008 0.755982H99.5457L107.244 0.748413L124.541 45.9986Z" fill="#31B493"/>
<path fill-rule="evenodd" clip-rule="evenodd" d="M60.192 33.8512C58.5373 35.9525 56.1018 36.9596 53.0091 36.9596C49.9989 36.9596 47.6231 35.9037 45.8751 33.784C45.5204 33.3587 45.2027 32.8733 44.9225 32.336C44.9225 32.336 44.654 31.7763 44.4372 31.2536L45.2364 33.3805L44.4372 31.2531L44.3813 31.1084L44.2767 30.8392L44.02 30.1736L44.2767 30.8397C44.2464 30.7612 44.2241 30.6864 44.2056 30.6225C43.6531 28.6712 43.3913 27.1971 43.2526 24.2935C43.2526 18.9267 44.0972 15.2061 45.7931 13.1351C47.4886 11.0598 49.8829 10.0224 52.9755 10.0224C55.9825 10.0224 58.3616 11.0787 60.1096 13.1985C60.4647 13.6237 60.7672 14.1162 61.0622 14.6465C61.2899 15.0609 61.7795 16.3632 61.7795 16.3632C62.4144 18.2923 62.7316 20.7182 62.7316 23.6402C62.4409 29.0217 61.8202 31.7796 60.192 33.8512ZM59.9505 13.0088L59.9131 0.746726H59.9169C57.5723 0.345101 54.6231 0.215011 52.083 0.296849C45.4977 0.509725 39.2565 2.57367 35.0243 6.79428L35.1701 7.17887L35.1625 7.1855L35.0134 6.79428L34.8605 6.966L34.7033 7.1415L34.5503 7.32079L34.4718 7.40594L34.3633 7.52941L34.2218 7.71248L34.0835 7.88751L33.9524 8.05545L33.8368 8.20541L33.7246 8.35442L33.62 8.48451L33.4931 8.66049L33.3662 8.8393L33.2763 8.97743L33.1683 9.1307L33.0713 9.27215L32.9515 9.44812L32.8056 9.68323L32.6527 9.92875L32.5519 10.1043L32.4359 10.3062L32.3128 10.5229L32.1599 10.802L32.0552 10.9964L31.9657 11.1753L31.8947 11.3134L31.7934 11.5192L31.7039 11.7056L31.6106 11.9071L31.5358 12.0788L31.4539 12.2614L31.3753 12.4478L31.2707 12.6829L31.1812 12.9152L31.0913 13.1498L31.0056 13.3735L30.9199 13.6053L30.819 13.8816L30.7366 14.1347L30.6542 14.4034L30.5572 14.6986L30.4639 14.9975L30.4005 15.2327L30.3408 15.4484L30.2324 15.8703L30.1429 16.2289L30.0828 16.5085L30.0231 16.7814L29.9374 17.1731L29.8849 17.4636L29.8328 17.7772L29.7878 18.0275L29.7282 18.3894L29.6794 18.7333L29.6349 19.0578L29.5975 19.3445L29.571 19.5805L29.5487 19.8265L29.5227 20.0649L29.5042 20.2854L29.4777 20.5579L29.463 20.7778L29.4479 20.9831L29.4332 21.2367L29.418 21.4458L29.4072 21.6591L29.3996 21.864L29.392 22.092L29.3844 22.3342L29.3698 22.7968V23.5211L29.366 23.7855L29.3735 24.0807L29.3806 24.3499L29.3882 24.726L29.3958 25.0358L29.4143 25.331L29.4332 25.6664L29.4441 25.8764L29.4592 26.0959L29.4777 26.3235L29.5004 26.5586L29.5189 26.7752L29.5411 27.0553L29.5786 27.3609L29.616 27.6485L29.6534 27.9177L29.6983 28.2535L29.7618 28.7569L29.8105 29.018L29.874 29.3799L29.9261 29.6822L29.9673 29.9135L29.9857 30.0261L30.0193 30.1562L30.0757 30.4026L30.124 30.5971L30.1727 30.8061L30.2172 30.985L30.2622 31.1751L30.3181 31.414L30.3891 31.6491L30.4639 31.8842L30.5198 32.0749L30.587 32.3024L30.6618 32.5375L30.7291 32.731L30.8001 32.9221L30.8787 33.1345L30.9644 33.3692L31.0169 33.5116L31.1064 33.7575L31.1774 33.952L31.2371 34.0934L31.3232 34.2798L31.4052 34.4629L31.4724 34.6199L31.5586 34.8144L31.6367 34.9894L31.7001 35.127L31.8346 35.3806L31.9208 35.5457L32.0064 35.7056L32.0926 35.866L32.1561 35.9856L32.2418 36.1498L32.4098 36.4672L32.5367 36.7061L32.6191 36.8622L32.7162 37.0344L32.8393 37.2397L32.933 37.3925L33.0561 37.5567L33.1233 37.6688L33.1456 37.7062L33.2427 37.8438L33.254 37.8589L33.3624 38.0122C33.3624 38.0122 35.9362 41.8482 39.167 43.5058C43.1261 45.5319 45.5611 45.9686 50.0173 45.9686H50.1892L50.1878 45.9652L50.1892 45.969C50.6039 45.995 52.0792 46.0693 53.0058 46.0693C58.0178 46.0693 62.2013 45.1331 65.5596 43.2556C68.9169 41.3823 71.6142 39.3969 73.392 36.0273C73.4479 35.9194 73.507 35.8078 73.5591 35.6966V12.8924L59.9505 13.0088Z" fill="#E94429"/>
<path fill-rule="evenodd" clip-rule="evenodd" d="M19.3967 28.2792L24.9319 12.892L29.6945 28.2792H19.3967ZM50.1887 45.9686H50.0173C45.5611 45.9686 43.1261 45.532 39.167 43.5054C35.9361 41.8488 33.3624 38.0123 33.3624 38.0123L33.254 37.859L33.2426 37.8443L33.1455 37.7062L33.1238 37.6693L33.1233 37.6688L33.0561 37.5567L32.933 37.3926L32.8392 37.2398L32.7161 37.0345L32.619 36.8627L32.5367 36.7057L32.4098 36.4673L32.2417 36.1498L32.156 35.9857L32.0926 35.8665L32.0064 35.7056L31.9207 35.5453L31.8345 35.3811L31.7001 35.1276L31.6366 34.9894L31.5585 34.8139L31.4723 34.62L31.4051 34.4634L31.3232 34.2803L31.237 34.0939L31.1774 33.952L31.1063 33.7576L31.0169 33.5116L30.9643 33.3692L30.8786 33.1346L30.8 32.9222L30.729 32.7315L30.6618 32.5376L30.587 32.3025L30.5197 32.0745L30.4639 31.8843L30.3891 31.6492L30.318 31.4141L30.2622 31.1752L30.2172 30.985L30.1727 30.8057L30.1239 30.5966L30.0756 30.4027L30.0193 30.1562L29.9857 30.0261L29.9672 29.9135L29.926 29.6822L29.8739 29.3799L29.8105 29.018L29.7617 28.7569L29.6983 28.2526L29.6533 27.9172L29.6159 27.6485L29.5785 27.3609L29.5411 27.0553L29.5188 26.7753L29.5004 26.5586L29.4776 26.3235L29.4592 26.096L29.444 25.876L29.4331 25.6664L29.4142 25.331L29.3957 25.0363L29.3882 24.7265L29.3806 24.3495L29.3735 24.0808L29.3659 23.786L29.3697 23.5211V22.7969L29.3844 22.3342L29.392 22.0916L29.3995 21.864L29.4071 21.6587L29.418 21.4458L29.4331 21.2367L29.4478 20.9832L29.463 20.7779L29.4776 20.5574L29.5042 20.2854L29.5226 20.065L29.5487 19.8261L29.5714 19.5801L29.5974 19.345L29.6348 19.0574L29.6793 18.7329L29.7281 18.3894L29.7878 18.0275L29.8327 17.7773L29.8848 17.4641L29.9374 17.1727L30.0231 16.781L30.0832 16.5085L30.1429 16.2285L30.2323 15.8704L30.3408 15.4484L30.4004 15.2322L30.4639 14.9971L30.5571 14.6986L30.6542 14.4034L30.7366 14.1352L30.819 13.8812L30.9198 13.6049L31.0055 13.3736L31.0912 13.1498L31.1812 12.9147L31.2706 12.6834L31.3753 12.4483L31.4539 12.2614L31.5358 12.0788L31.6106 11.9071L31.7039 11.7056L31.7933 11.5187L31.8947 11.3139L31.9657 11.1758L32.0552 10.9965L32.1598 10.8025L32.3127 10.5225L32.4358 10.3058L32.5518 10.1043L32.6527 9.92928L32.8056 9.68281L32.9514 9.44771L33.0712 9.2722L33.1683 9.13028L33.2762 8.97749L33.3662 8.83935L33.4931 8.66007L33.6199 8.48456L33.7246 8.35447L33.8368 8.20499L33.9523 8.0555L34.0835 7.88757L34.2217 7.71206L34.3633 7.52946L34.4717 7.40599L34.5503 7.32037L34.7032 7.14108L34.8604 6.96605L35.0133 6.79433L32.3724 0.755768H17.4655L0.302612 45.98H12.2437L15.3027 37.859H33.1938L35.8499 45.0655L36.1804 45.9785L50.1887 45.9686Z" fill="#FAC23D"/>
</svg>
