<svg xmlns="http://www.w3.org/2000/svg" viewBox="0 0 315.14 97.24"><defs><style>.cls-1,.cls-2{fill:#4d4d4f;}.cls-2,.cls-3{font-size:31.04px;font-family:Helvetica-Light, Helvetica;font-weight:300;}.cls-3{fill:#6d6e71;}</style></defs><g id="Layer_2" data-name="Layer 2"><g id="Layer_1-2" data-name="Layer 1"><path class="cls-1" d="M0,25.22,9.42,1.33H12l9.16,23.89H18.81l-2.75-7.5H5.17l-2.82,7.5Zm5.9-9.42h9.36L10.61,3.26Z"/><path class="cls-1" d="M25.78,25.22h-2V8h2v2.59h.07A5.28,5.28,0,0,1,28,8.35a6.39,6.39,0,0,1,3.12-.78,6.59,6.59,0,0,1,2,.27,4.45,4.45,0,0,1,1.41.71,4.1,4.1,0,0,1,1,1,6.86,6.86,0,0,1,.65,1.3,5.77,5.77,0,0,1,2.31-2.51,6.61,6.61,0,0,1,3.3-.81,5.72,5.72,0,0,1,2.8.58,4.17,4.17,0,0,1,1.61,1.53A5.76,5.76,0,0,1,47,11.85a17.38,17.38,0,0,1,.18,2.52V25.22h-2V13.34a4.86,4.86,0,0,0-.78-2.92,3.42,3.42,0,0,0-2.9-1.06,4.86,4.86,0,0,0-2.11.48,5,5,0,0,0-1.78,1.48,3.73,3.73,0,0,0-.54,1,8,8,0,0,0-.35,1.21,9.1,9.1,0,0,0-.18,1.26c0,.42-.05.81-.05,1.17v9.25h-2V13.34a4.94,4.94,0,0,0-.78-2.92,3.44,3.44,0,0,0-2.91-1.06,4.89,4.89,0,0,0-2.11.48,5,5,0,0,0-1.77,1.48,3.75,3.75,0,0,0-.55,1A9.39,9.39,0,0,0,26,13.54a9.1,9.1,0,0,0-.18,1.26c0,.42,0,.81,0,1.17Z"/><path class="cls-1" d="M52.93,17.09a9.46,9.46,0,0,0,.36,2.64,6.26,6.26,0,0,0,1.08,2.16,5.31,5.31,0,0,0,1.81,1.46,5.63,5.63,0,0,0,2.52.55,5.51,5.51,0,0,0,3.35-1A5,5,0,0,0,63.91,20h2.22a10.47,10.47,0,0,1-1,2.27,7,7,0,0,1-1.49,1.83,6.54,6.54,0,0,1-2.13,1.21,8.72,8.72,0,0,1-2.85.43,8.27,8.27,0,0,1-3.55-.7,6.67,6.67,0,0,1-2.46-1.91,8,8,0,0,1-1.42-2.85,12.93,12.93,0,0,1-.47-3.53,11.44,11.44,0,0,1,.55-3.56,9.09,9.09,0,0,1,1.56-2.9,7.28,7.28,0,0,1,2.47-2,7.56,7.56,0,0,1,3.32-.71A6.85,6.85,0,0,1,64.28,10c1.35,1.62,2,4,2,7.08Zm11.21-1.66a7.64,7.64,0,0,0-.35-2.37,5.52,5.52,0,0,0-1-1.92,5,5,0,0,0-1.71-1.3,5.56,5.56,0,0,0-2.36-.48,5.3,5.3,0,0,0-2.34.5,5.24,5.24,0,0,0-1.72,1.33,6.58,6.58,0,0,0-1.15,1.92,8.56,8.56,0,0,0-.56,2.32Z"/><path class="cls-1" d="M72.24,25.22h-2V8h2v3.22h.07a5.71,5.71,0,0,1,2.14-2.87,6.52,6.52,0,0,1,3.46-.81V9.73a5.66,5.66,0,0,0-2.78.53,4.51,4.51,0,0,0-1.74,1.52,6,6,0,0,0-.9,2.28,14.25,14.25,0,0,0-.25,2.74Z"/><path class="cls-1" d="M81.4,1.33h2.19v3H81.4ZM81.5,8h2V25.22h-2Z"/><path class="cls-1" d="M100.75,13.44a5.85,5.85,0,0,0-1.83-3,5,5,0,0,0-3.28-1.08A5.2,5.2,0,0,0,93,10a5.33,5.33,0,0,0-1.79,1.68,7.57,7.57,0,0,0-1,2.35,10.85,10.85,0,0,0-.33,2.64,11.26,11.26,0,0,0,.32,2.66,7,7,0,0,0,1,2.32A5.13,5.13,0,0,0,93,23.28a5.37,5.37,0,0,0,2.66.62,5.05,5.05,0,0,0,3.56-1.23,5.68,5.68,0,0,0,1.71-3.39H103a10.12,10.12,0,0,1-.85,2.61,7.06,7.06,0,0,1-1.49,2,6.38,6.38,0,0,1-2.18,1.31A9.25,9.25,0,0,1,92.08,25a6.64,6.64,0,0,1-2.45-1.91,8,8,0,0,1-1.43-2.87,13.08,13.08,0,0,1-.46-3.55,11.48,11.48,0,0,1,.51-3.43,9,9,0,0,1,1.51-2.91,7.3,7.3,0,0,1,2.47-2,7.44,7.44,0,0,1,3.41-.75A7.58,7.58,0,0,1,100.46,9a6.61,6.61,0,0,1,2.31,4.44Z"/><path class="cls-1" d="M114.92,15.2c.37,0,.82-.11,1.34-.2a5.37,5.37,0,0,0,1.28-.36,1.08,1.08,0,0,0,.61-.78,4.77,4.77,0,0,0,.12-1,3.41,3.41,0,0,0-1-2.51,4.57,4.57,0,0,0-3.3-1,9.19,9.19,0,0,0-1.89.18,4.38,4.38,0,0,0-1.51.63,3.46,3.46,0,0,0-1.07,1.2,5,5,0,0,0-.54,1.87h-2a6.19,6.19,0,0,1,.7-2.6,5.26,5.26,0,0,1,1.54-1.76,6.46,6.46,0,0,1,2.19-1A10.73,10.73,0,0,1,114,7.57a10.08,10.08,0,0,1,2.44.28,5.67,5.67,0,0,1,2,.9,4.08,4.08,0,0,1,1.33,1.64,6,6,0,0,1,.48,2.52v9.36c0,.78.14,1.27.42,1.48s.83.16,1.67-.15v1.56l-.68.2a3,3,0,0,1-.88.13,3.82,3.82,0,0,1-.9-.1,1.46,1.46,0,0,1-.79-.32,1.84,1.84,0,0,1-.48-.59,2.4,2.4,0,0,1-.25-.77,4.91,4.91,0,0,1-.07-.88A8.64,8.64,0,0,1,115.41,25a8.39,8.39,0,0,1-3.51.73,7.86,7.86,0,0,1-2.18-.3,5.33,5.33,0,0,1-1.84-.93,4.6,4.6,0,0,1-1.26-1.54,4.74,4.74,0,0,1-.46-2.18q0-4.38,6-5.17Zm3.35,1a9.83,9.83,0,0,1-2.56.69c-.86.12-1.72.2-2.59.27a7.22,7.22,0,0,0-3.56,1,2.93,2.93,0,0,0-1.28,2.62,2.76,2.76,0,0,0,.32,1.38,2.73,2.73,0,0,0,.82,1,3.59,3.59,0,0,0,1.2.56,4.94,4.94,0,0,0,1.38.19,9,9,0,0,0,2.32-.3,6.35,6.35,0,0,0,2-.91,4.8,4.8,0,0,0,1.41-1.56,4.55,4.55,0,0,0,.53-2.24Z"/><path class="cls-1" d="M127.46,25.22h-2V8h2v2.39a12.73,12.73,0,0,1,2.47-2.05,5.73,5.73,0,0,1,3.07-.8,7.76,7.76,0,0,1,3,.55A5,5,0,0,1,138.25,10a4.13,4.13,0,0,1,.74,1.9,16.94,16.94,0,0,1,.12,2V25.22h-2V14a5.12,5.12,0,0,0-1-3.49,4.4,4.4,0,0,0-3.42-1.16,5,5,0,0,0-1.69.28,5.4,5.4,0,0,0-1.38.75,4.75,4.75,0,0,0-1,1.06,5.11,5.11,0,0,0-.67,1.26,6.2,6.2,0,0,0-.36,1.6c0,.51-.07,1.06-.07,1.66Z"/><text class="cls-2" transform="translate(130.5 26.67)"> </text><path class="cls-1" d="M1.19,50.09a15.49,15.49,0,0,1,.68-4.64,10.93,10.93,0,0,1,2-3.78,9.22,9.22,0,0,1,3.26-2.55,10.08,10.08,0,0,1,4.48-.95,10.83,10.83,0,0,1,4.62.93,9.32,9.32,0,0,1,3.32,2.54,10.93,10.93,0,0,1,2,3.79,15.67,15.67,0,0,1,.67,4.66,15.21,15.21,0,0,1-.67,4.59,11.19,11.19,0,0,1-2,3.76A9.24,9.24,0,0,1,16.27,61a10.5,10.5,0,0,1-4.58.94A10.45,10.45,0,0,1,7.12,61a9.15,9.15,0,0,1-3.29-2.55,11,11,0,0,1-2-3.76,15.53,15.53,0,0,1-.66-4.59m10.53,10a8.05,8.05,0,0,0,3.78-.83,7.55,7.55,0,0,0,2.6-2.21,9.56,9.56,0,0,0,1.51-3.2,14.8,14.8,0,0,0,.48-3.79,14.07,14.07,0,0,0-.58-4.22,9.26,9.26,0,0,0-1.67-3.18,7.23,7.23,0,0,0-2.67-2A8.59,8.59,0,0,0,11.66,40a7.74,7.74,0,0,0-3.74.85,7.56,7.56,0,0,0-2.61,2.24,9.49,9.49,0,0,0-1.5,3.21,15.06,15.06,0,0,0,0,7.62,9.35,9.35,0,0,0,1.5,3.2A7.33,7.33,0,0,0,7.92,59.3a8.11,8.11,0,0,0,3.8.82"/><path class="cls-1" d="M37.68,50.21A5.49,5.49,0,0,0,36,47.37a4.72,4.72,0,0,0-3.1-1,5,5,0,0,0-2.48.59,5.12,5.12,0,0,0-1.69,1.58,7.12,7.12,0,0,0-1,2.23,10.11,10.11,0,0,0-.31,2.49,11,11,0,0,0,.29,2.51,6.67,6.67,0,0,0,1,2.19,5,5,0,0,0,1.69,1.56,5.14,5.14,0,0,0,2.51.58,4.82,4.82,0,0,0,3.37-1.16,5.39,5.39,0,0,0,1.61-3.2h2a9.35,9.35,0,0,1-.8,2.46,6.45,6.45,0,0,1-1.41,1.91,6.05,6.05,0,0,1-2.05,1.24,8,8,0,0,1-2.73.44,7.82,7.82,0,0,1-3.35-.66,6.32,6.32,0,0,1-2.32-1.8,7.58,7.58,0,0,1-1.35-2.71,12.57,12.57,0,0,1-.44-3.36A10.55,10.55,0,0,1,25.88,50a8.39,8.39,0,0,1,1.42-2.74,6.88,6.88,0,0,1,2.34-1.9,7,7,0,0,1,3.21-.71A7.23,7.23,0,0,1,37.41,46a6.25,6.25,0,0,1,2.18,4.2Z"/><path class="cls-1" d="M55.11,50.21a5.49,5.49,0,0,0-1.73-2.84,4.72,4.72,0,0,0-3.1-1A5,5,0,0,0,47.8,47a5.12,5.12,0,0,0-1.69,1.58,7.12,7.12,0,0,0-1,2.23,10.12,10.12,0,0,0-.32,2.49,10.51,10.51,0,0,0,.3,2.51,6.67,6.67,0,0,0,1,2.19,5,5,0,0,0,1.69,1.56,5.14,5.14,0,0,0,2.51.58,4.82,4.82,0,0,0,3.37-1.16,5.45,5.45,0,0,0,1.61-3.2h2a9.73,9.73,0,0,1-.8,2.46,6.63,6.63,0,0,1-1.41,1.91A6.15,6.15,0,0,1,53,61.34a8,8,0,0,1-2.73.44,7.87,7.87,0,0,1-3.36-.66,6.4,6.4,0,0,1-2.32-1.8,7.73,7.73,0,0,1-1.34-2.71,12.18,12.18,0,0,1-.44-3.36A10.86,10.86,0,0,1,43.3,50a8.41,8.41,0,0,1,1.43-2.74,6.88,6.88,0,0,1,2.34-1.9,7,7,0,0,1,3.21-.71A7.23,7.23,0,0,1,54.84,46,6.29,6.29,0,0,1,57,50.21Z"/><path class="cls-1" d="M72,45.1h1.88V61.34H72V59.08c-.25.3-.53.6-.84.91a6.78,6.78,0,0,1-1.09.86,5.83,5.83,0,0,1-1.42.66,6,6,0,0,1-1.88.27,7,7,0,0,1-2.73-.46,4.38,4.38,0,0,1-1.77-1.27,5,5,0,0,1-1-1.89,8.84,8.84,0,0,1-.3-2.37V45.1h1.88V55.76a4.77,4.77,0,0,0,1,3.21,4.07,4.07,0,0,0,3.2,1.12,4.68,4.68,0,0,0,2.08-.46,4.27,4.27,0,0,0,1.56-1.27,6.19,6.19,0,0,0,1-1.94A8.45,8.45,0,0,0,72,53.94Z"/><path class="cls-1" d="M80.56,67.73H78.68V45.1h1.88V48h.06a5.51,5.51,0,0,1,1-1.41,6.37,6.37,0,0,1,1.41-1,7.74,7.74,0,0,1,1.59-.63,6.34,6.34,0,0,1,1.59-.22,7.74,7.74,0,0,1,3.36.66,6.31,6.31,0,0,1,2.27,1.8,7.31,7.31,0,0,1,1.3,2.72,13.31,13.31,0,0,1,.41,3.35,12.16,12.16,0,0,1-.44,3.26,8.13,8.13,0,0,1-1.33,2.74,6.57,6.57,0,0,1-2.26,1.88,6.91,6.91,0,0,1-3.21.71A7.54,7.54,0,0,1,83.05,61a5.87,5.87,0,0,1-2.49-2.27Zm0-14.45a8.65,8.65,0,0,0,.38,2.62A6.64,6.64,0,0,0,82,58.06a5.32,5.32,0,0,0,1.72,1.48,4.85,4.85,0,0,0,2.3.55,5.34,5.34,0,0,0,2.53-.58,5,5,0,0,0,1.77-1.59,6.82,6.82,0,0,0,1-2.33,10.67,10.67,0,0,0,.25-2.87A8,8,0,0,0,91.17,50,5.54,5.54,0,0,0,90,48a4.87,4.87,0,0,0-1.75-1.24,5.64,5.64,0,0,0-2.2-.42,5,5,0,0,0-2.35.53A4.85,4.85,0,0,0,82,48.35a6.56,6.56,0,0,0-1,2.19,10,10,0,0,0-.36,2.74"/><path class="cls-1" d="M105.07,51.87c.36,0,.78-.1,1.27-.18a5,5,0,0,0,1.21-.35,1,1,0,0,0,.58-.74,4.78,4.78,0,0,0,.11-1,3.21,3.21,0,0,0-.93-2.37,4.28,4.28,0,0,0-3.12-.92,8.28,8.28,0,0,0-1.78.17,3.82,3.82,0,0,0-1.43.59,3.32,3.32,0,0,0-1,1.13A4.74,4.74,0,0,0,99.46,50H97.55a5.72,5.72,0,0,1,.66-2.46,5,5,0,0,1,1.45-1.66,6.12,6.12,0,0,1,2.07-.94,10.11,10.11,0,0,1,2.49-.3,9.5,9.5,0,0,1,2.31.27,5.31,5.31,0,0,1,1.88.85,3.86,3.86,0,0,1,1.25,1.55,5.49,5.49,0,0,1,.46,2.38v8.84c0,.73.13,1.2.39,1.39s.79.16,1.58-.14v1.48l-.64.18a2.71,2.71,0,0,1-.83.13,4,4,0,0,1-.85-.09,1.5,1.5,0,0,1-.75-.3,1.78,1.78,0,0,1-.45-.57,2.11,2.11,0,0,1-.24-.72,5.4,5.4,0,0,1-.06-.83,8.26,8.26,0,0,1-2.73,2,8,8,0,0,1-3.32.69,7.69,7.69,0,0,1-2-.28,4.93,4.93,0,0,1-1.74-.88,4.36,4.36,0,0,1-1.2-1.46,4.49,4.49,0,0,1-.43-2q0-4.14,5.67-4.89Zm3.17.94a8.9,8.9,0,0,1-2.42.66c-.81.11-1.63.19-2.44.25a7,7,0,0,0-3.37,1,2.79,2.79,0,0,0-1.21,2.48,2.66,2.66,0,0,0,.3,1.3,2.76,2.76,0,0,0,.78.91,3.27,3.27,0,0,0,1.13.53,4.8,4.8,0,0,0,1.3.18,8.51,8.51,0,0,0,2.2-.29,5.63,5.63,0,0,0,1.89-.86,4.49,4.49,0,0,0,1.34-1.47,4.32,4.32,0,0,0,.5-2.12Z"/><path class="cls-1" d="M120.74,61.4c-.23,0-.53.12-.91.22a4.8,4.8,0,0,1-1.25.16,3,3,0,0,1-2.15-.71,3.43,3.43,0,0,1-.73-2.52V46.67h-2.29V45.1h2.29V40.59h1.88V45.1h3v1.57h-3V57.8c0,.39,0,.74,0,1a1.65,1.65,0,0,0,.19.72.85.85,0,0,0,.48.41,2.79,2.79,0,0,0,.93.13A5.24,5.24,0,0,0,120,60c.26,0,.51-.09.76-.15Z"/><path class="cls-1" d="M123.94,38.77H126v2.79h-2.07ZM124,45.1h1.89V61.34H124Z"/><path class="cls-1" d="M137.17,61.78a8.3,8.3,0,0,1-2.93-.57,6.39,6.39,0,0,1-2.38-1.59A7.79,7.79,0,0,1,130.24,57a10.62,10.62,0,0,1-.59-3.73,11.28,11.28,0,0,1,.47-3.34,7.77,7.77,0,0,1,1.41-2.71,6.67,6.67,0,0,1,2.35-1.83,7.52,7.52,0,0,1,3.29-.68,7.63,7.63,0,0,1,3.32.68,6.73,6.73,0,0,1,2.35,1.81,7.63,7.63,0,0,1,1.4,2.72,12.05,12.05,0,0,1,.45,3.35,11,11,0,0,1-.53,3.51,8,8,0,0,1-1.52,2.7,6.76,6.76,0,0,1-2.38,1.74,7.74,7.74,0,0,1-3.09.61m5.52-8.56a11.1,11.1,0,0,0-.32-2.7,6.33,6.33,0,0,0-1-2.17,4.59,4.59,0,0,0-1.69-1.46,5.45,5.45,0,0,0-2.54-.53,5.1,5.1,0,0,0-2.52.58,4.76,4.76,0,0,0-1.71,1.53,6.56,6.56,0,0,0-1,2.2,10.24,10.24,0,0,0-.32,2.55A10.09,10.09,0,0,0,132,56a6.41,6.41,0,0,0,1.05,2.18,4.65,4.65,0,0,0,1.73,1.41,5.31,5.31,0,0,0,2.38.51,5.21,5.21,0,0,0,2.52-.58A4.93,4.93,0,0,0,141.4,58a6.9,6.9,0,0,0,1-2.19,10.16,10.16,0,0,0,.32-2.54"/><path class="cls-1" d="M150,61.34h-1.88V45.1H150v2.26a11.81,11.81,0,0,1,2.34-1.94,5.28,5.28,0,0,1,2.89-.76,7.45,7.45,0,0,1,2.79.52,4.86,4.86,0,0,1,2.17,1.8,4.11,4.11,0,0,1,.7,1.81,14.81,14.81,0,0,1,.11,1.92V61.34h-1.88V50.74a4.82,4.82,0,0,0-1-3.29,4.13,4.13,0,0,0-3.23-1.09,4.79,4.79,0,0,0-1.6.26,5.26,5.26,0,0,0-1.3.71,4.69,4.69,0,0,0-1,1,4.51,4.51,0,0,0-.62,1.19,5.86,5.86,0,0,0-.35,1.51q-.06.72-.06,1.56Z"/><path class="cls-1" d="M173,51.87c.35,0,.78-.1,1.27-.18a4.8,4.8,0,0,0,1.2-.35,1,1,0,0,0,.58-.74,4.14,4.14,0,0,0,.11-1,3.2,3.2,0,0,0-.92-2.37,4.31,4.31,0,0,0-3.12-.92,8.37,8.37,0,0,0-1.79.17,3.85,3.85,0,0,0-1.42.59,3.45,3.45,0,0,0-1,1.13,4.74,4.74,0,0,0-.51,1.77h-1.91a5.86,5.86,0,0,1,.65-2.46,5.11,5.11,0,0,1,1.46-1.66,6.12,6.12,0,0,1,2.07-.94,10,10,0,0,1,2.49-.3,9.56,9.56,0,0,1,2.31.27,5.39,5.39,0,0,1,1.88.85,3.86,3.86,0,0,1,1.25,1.55,5.65,5.65,0,0,1,.45,2.38v8.84c0,.73.13,1.2.4,1.39s.79.16,1.58-.14v1.48l-.64.18a2.76,2.76,0,0,1-.83.13,3.89,3.89,0,0,1-.85-.09,1.5,1.5,0,0,1-.75-.3,2,2,0,0,1-.46-.57,2.34,2.34,0,0,1-.23-.72,5.4,5.4,0,0,1-.06-.83,8.26,8.26,0,0,1-2.73,2,8,8,0,0,1-3.32.69,7.76,7.76,0,0,1-2.06-.28,4.93,4.93,0,0,1-1.74-.88,4.33,4.33,0,0,1-1.19-1.46,4.49,4.49,0,0,1-.44-2q0-4.14,5.68-4.89Zm3.16.94a8.74,8.74,0,0,1-2.41.66c-.81.11-1.63.19-2.44.25a7,7,0,0,0-3.37,1,2.79,2.79,0,0,0-1.21,2.48,2.66,2.66,0,0,0,.3,1.3,2.76,2.76,0,0,0,.78.91,3.19,3.19,0,0,0,1.13.53,4.8,4.8,0,0,0,1.3.18,8.44,8.44,0,0,0,2.19-.29,5.68,5.68,0,0,0,1.9-.86,4.46,4.46,0,0,0,1.33-1.47,4.21,4.21,0,0,0,.5-2.12Z"/><rect class="cls-1" x="183.28" y="38.77" width="1.88" height="22.57"/><polygon class="cls-1" points="196.91 38.77 213.34 38.77 213.34 40.59 206.19 40.59 206.19 61.34 204.06 61.34 204.06 40.59 196.91 40.59 196.91 38.77"/><path class="cls-1" d="M216.1,61.34V38.77H218v8.59a12.06,12.06,0,0,1,2.33-1.94,5.31,5.31,0,0,1,2.9-.76,7.49,7.49,0,0,1,2.79.52,4.78,4.78,0,0,1,2.16,1.8,4,4,0,0,1,.71,1.81,16.82,16.82,0,0,1,.11,1.92V61.34H227.1V50.74a4.88,4.88,0,0,0-1-3.29,4.14,4.14,0,0,0-3.23-1.09,4.75,4.75,0,0,0-1.6.26,5.26,5.26,0,0,0-1.3.71,4.47,4.47,0,0,0-1,1,4.87,4.87,0,0,0-.63,1.19A6.27,6.27,0,0,0,218,51q-.06.72-.06,1.56v8.75Z"/><path class="cls-1" d="M234.68,53.66a8.76,8.76,0,0,0,.35,2.49,6.11,6.11,0,0,0,1,2,5.06,5.06,0,0,0,1.71,1.38,5.31,5.31,0,0,0,2.38.52,5.15,5.15,0,0,0,3.16-1,4.62,4.62,0,0,0,1.76-2.76h2.1a9.86,9.86,0,0,1-.91,2.15,6.77,6.77,0,0,1-1.41,1.73,6,6,0,0,1-2,1.14,8.13,8.13,0,0,1-2.69.41,7.9,7.9,0,0,1-3.36-.66,6.4,6.4,0,0,1-2.32-1.8,7.68,7.68,0,0,1-1.34-2.7,11.94,11.94,0,0,1-.44-3.34,10.45,10.45,0,0,1,.52-3.35,8.39,8.39,0,0,1,1.47-2.74A6.78,6.78,0,0,1,237,45.34a7.07,7.07,0,0,1,3.14-.68A6.46,6.46,0,0,1,245.4,47q1.92,2.3,1.88,6.69Zm10.6-1.57a7.45,7.45,0,0,0-.33-2.24A5.21,5.21,0,0,0,244,48a4.62,4.62,0,0,0-1.62-1.22,5.21,5.21,0,0,0-2.22-.45,4.86,4.86,0,0,0-2.21.47,5,5,0,0,0-1.63,1.25,6.22,6.22,0,0,0-1.08,1.82,8.78,8.78,0,0,0-.54,2.19Z"/><path class="cls-1" d="M252.93,61.34h-1.88V45.1h1.88v3H253a5.41,5.41,0,0,1,2-2.71,6.2,6.2,0,0,1,3.28-.77v2a5.58,5.58,0,0,0-2.64.5A4.42,4.42,0,0,0,254,48.64a5.8,5.8,0,0,0-.85,2.15,14.51,14.51,0,0,0-.23,2.59Z"/><path class="cls-1" d="M268.85,51.87c.36,0,.78-.1,1.27-.18a5,5,0,0,0,1.21-.35,1,1,0,0,0,.58-.74,4.78,4.78,0,0,0,.11-1,3.21,3.21,0,0,0-.93-2.37,4.28,4.28,0,0,0-3.12-.92,8.28,8.28,0,0,0-1.78.17,3.82,3.82,0,0,0-1.43.59,3.32,3.32,0,0,0-1,1.13,4.74,4.74,0,0,0-.52,1.77h-1.91a5.72,5.72,0,0,1,.66-2.46,5,5,0,0,1,1.45-1.66,6.12,6.12,0,0,1,2.07-.94,10.11,10.11,0,0,1,2.49-.3,9.5,9.5,0,0,1,2.31.27,5.31,5.31,0,0,1,1.88.85,3.86,3.86,0,0,1,1.25,1.55,5.49,5.49,0,0,1,.46,2.38v8.84c0,.73.13,1.2.39,1.39s.79.16,1.58-.14v1.48l-.64.18a2.71,2.71,0,0,1-.83.13,4,4,0,0,1-.85-.09,1.5,1.5,0,0,1-.75-.3,1.78,1.78,0,0,1-.45-.57,2.11,2.11,0,0,1-.24-.72,5.4,5.4,0,0,1-.06-.83,8.26,8.26,0,0,1-2.73,2,8,8,0,0,1-3.32.69A7.69,7.69,0,0,1,264,61.5a4.93,4.93,0,0,1-1.74-.88,4.36,4.36,0,0,1-1.2-1.46,4.49,4.49,0,0,1-.43-2q0-4.14,5.67-4.89Zm3.17.94a8.9,8.9,0,0,1-2.42.66c-.81.11-1.63.19-2.44.25a7,7,0,0,0-3.37,1,2.79,2.79,0,0,0-1.21,2.48,2.66,2.66,0,0,0,.3,1.3,2.76,2.76,0,0,0,.78.91,3.27,3.27,0,0,0,1.13.53,4.8,4.8,0,0,0,1.3.18,8.51,8.51,0,0,0,2.2-.29,5.63,5.63,0,0,0,1.89-.86,4.49,4.49,0,0,0,1.34-1.47,4.32,4.32,0,0,0,.5-2.12Z"/><path class="cls-1" d="M280.92,67.73H279V45.1h1.88V48H281a5.51,5.51,0,0,1,1-1.41,6.37,6.37,0,0,1,1.41-1,7.74,7.74,0,0,1,1.59-.63,6.34,6.34,0,0,1,1.59-.22,7.74,7.74,0,0,1,3.36.66,6.31,6.31,0,0,1,2.27,1.8,7.47,7.47,0,0,1,1.3,2.72,13.31,13.31,0,0,1,.41,3.35,12.16,12.16,0,0,1-.44,3.26,8.13,8.13,0,0,1-1.33,2.74,6.57,6.57,0,0,1-2.26,1.88,6.91,6.91,0,0,1-3.21.71,7.54,7.54,0,0,1-3.31-.77,5.76,5.76,0,0,1-2.49-2.27Zm0-14.45a8.65,8.65,0,0,0,.38,2.62,6.64,6.64,0,0,0,1.08,2.16,5.32,5.32,0,0,0,1.72,1.48,4.85,4.85,0,0,0,2.3.55,5.37,5.37,0,0,0,2.53-.58,5,5,0,0,0,1.77-1.59,6.82,6.82,0,0,0,1-2.33,10.67,10.67,0,0,0,.25-2.87,8,8,0,0,0-.42-2.71,5.69,5.69,0,0,0-1.18-2,4.87,4.87,0,0,0-1.75-1.24,5.64,5.64,0,0,0-2.2-.42,5,5,0,0,0-2.35.53,4.85,4.85,0,0,0-1.72,1.46,6.56,6.56,0,0,0-1.05,2.19,10,10,0,0,0-.36,2.74"/><path class="cls-1" d="M297.85,65.73l.76.12a5.29,5.29,0,0,0,.8.07,1.78,1.78,0,0,0,1.29-.5,4.4,4.4,0,0,0,.83-1.21,10.33,10.33,0,0,0,.55-1.47,6.2,6.2,0,0,1,.5-1.3l-6.3-16.34h2.1l5.2,13.95,5.2-13.95h2l-6.05,16q-.56,1.53-1.08,2.76a11.79,11.79,0,0,1-1.1,2.08,4.38,4.38,0,0,1-1.28,1.32,3.06,3.06,0,0,1-1.68.45,7.23,7.23,0,0,1-.95-.06,5.83,5.83,0,0,1-.83-.16Z"/><text class="cls-3" transform="translate(306.51 61.79)"> </text><path class="cls-1" d="M0,96.8,8.87,74.23h2.42L19.94,96.8h-2.2l-2.6-7.08H4.86L2.19,96.8Zm5.58-8.9h8.84L10,76.05Z"/><path class="cls-1" d="M23.79,91.72a4.81,4.81,0,0,0,1.58,3,5.43,5.43,0,0,0,3.28.86,5.9,5.9,0,0,0,1.79-.25,3.61,3.61,0,0,0,1.23-.68,2.89,2.89,0,0,0,.74-1,2.62,2.62,0,0,0,.25-1.13,2,2,0,0,0-.77-1.77A5.71,5.71,0,0,0,30,89.86c-.78-.22-1.61-.41-2.51-.57a12,12,0,0,1-2.51-.7A5,5,0,0,1,23,87.24a3.64,3.64,0,0,1-.76-2.48,4.22,4.22,0,0,1,1.48-3.33A6.22,6.22,0,0,1,28,80.12a7.22,7.22,0,0,1,4.28,1.18,5.37,5.37,0,0,1,2,3.93H32.32a3.52,3.52,0,0,0-1.43-2.64,5.23,5.23,0,0,0-3-.77,4.19,4.19,0,0,0-2.73.77,2.46,2.46,0,0,0-.94,2A2,2,0,0,0,25,86.28a6.1,6.1,0,0,0,1.93,1c.77.24,1.61.45,2.51.64a12.19,12.19,0,0,1,2.5.8,5.41,5.41,0,0,1,1.93,1.39,3.61,3.61,0,0,1,.77,2.45,4.18,4.18,0,0,1-.5,2,4.47,4.47,0,0,1-1.38,1.49,6.41,6.41,0,0,1-2.09.89,11,11,0,0,1-2.65.3,7.18,7.18,0,0,1-2.55-.42,5.82,5.82,0,0,1-1.9-1.18,5.47,5.47,0,0,1-1.22-1.75,6.21,6.21,0,0,1-.5-2.17Z"/><path class="cls-1" d="M39.46,91.72a4.82,4.82,0,0,0,1.59,3,5.37,5.37,0,0,0,3.27.86,5.9,5.9,0,0,0,1.79-.25,3.77,3.77,0,0,0,1.24-.68,2.85,2.85,0,0,0,.73-1,2.63,2.63,0,0,0,.26-1.13,2.07,2.07,0,0,0-.77-1.77,5.77,5.77,0,0,0-1.93-.91,25.28,25.28,0,0,0-2.51-.57,12.18,12.18,0,0,1-2.51-.7,4.92,4.92,0,0,1-1.92-1.35,3.6,3.6,0,0,1-.77-2.48,4.23,4.23,0,0,1,1.49-3.33,6.19,6.19,0,0,1,4.21-1.31,7.2,7.2,0,0,1,4.28,1.18,5.37,5.37,0,0,1,2,3.93H48a3.49,3.49,0,0,0-1.43-2.64,5.23,5.23,0,0,0-3-.77,4.19,4.19,0,0,0-2.73.77,2.49,2.49,0,0,0-.94,2,2,2,0,0,0,.77,1.67,6.21,6.21,0,0,0,1.93,1c.77.24,1.61.45,2.51.64a12.28,12.28,0,0,1,2.51.8,5.46,5.46,0,0,1,1.92,1.39,3.56,3.56,0,0,1,.77,2.45,4.18,4.18,0,0,1-.5,2,4.27,4.27,0,0,1-1.38,1.49,6.35,6.35,0,0,1-2.08.89,11,11,0,0,1-2.65.3,7.23,7.23,0,0,1-2.56-.42,5.67,5.67,0,0,1-1.89-1.18,5.5,5.5,0,0,1-1.23-1.75,6.21,6.21,0,0,1-.5-2.17Z"/><path class="cls-1" d="M60.5,97.24a8.48,8.48,0,0,1-2.93-.56,6.66,6.66,0,0,1-2.39-1.6,7.83,7.83,0,0,1-1.61-2.67,10.57,10.57,0,0,1-.6-3.73,11.62,11.62,0,0,1,.47-3.34,8.22,8.22,0,0,1,1.41-2.71,6.8,6.8,0,0,1,2.36-1.83,7.52,7.52,0,0,1,3.29-.67,7.63,7.63,0,0,1,3.32.67,6.73,6.73,0,0,1,2.35,1.82,7.5,7.5,0,0,1,1.4,2.71A12.05,12.05,0,0,1,68,88.68a11,11,0,0,1-.53,3.51A8.07,8.07,0,0,1,66,94.89a6.8,6.8,0,0,1-2.39,1.74,7.53,7.53,0,0,1-3.08.61M66,88.68A11,11,0,0,0,65.7,86a6.3,6.3,0,0,0-1-2.18A4.68,4.68,0,0,0,63,82.35a5.58,5.58,0,0,0-2.54-.53A5.12,5.12,0,0,0,58,82.4a4.83,4.83,0,0,0-1.7,1.53,6.78,6.78,0,0,0-1,2.2A10.29,10.29,0,0,0,55,88.68a10.17,10.17,0,0,0,.36,2.78,6.6,6.6,0,0,0,1,2.18,4.77,4.77,0,0,0,1.73,1.41,5.41,5.41,0,0,0,2.38.5A5.21,5.21,0,0,0,63,95a5,5,0,0,0,1.71-1.55,7,7,0,0,0,1-2.2A10.1,10.1,0,0,0,66,88.68"/><path class="cls-1" d="M83,85.67a5.45,5.45,0,0,0-1.72-2.83,4.69,4.69,0,0,0-3.1-1,5,5,0,0,0-2.48.59A5,5,0,0,0,74,84a6.94,6.94,0,0,0-1,2.22,10.12,10.12,0,0,0-.32,2.49,10.45,10.45,0,0,0,.3,2.51,6.72,6.72,0,0,0,1,2.2A4.94,4.94,0,0,0,75.64,95a5.12,5.12,0,0,0,2.51.58,4.84,4.84,0,0,0,3.37-1.16,5.42,5.42,0,0,0,1.61-3.2h2a9.73,9.73,0,0,1-.8,2.46,6.63,6.63,0,0,1-1.41,1.91,5.94,5.94,0,0,1-2.06,1.24,8.77,8.77,0,0,1-6.08-.22,6.4,6.4,0,0,1-2.32-1.8,7.83,7.83,0,0,1-1.35-2.71,12.52,12.52,0,0,1-.44-3.36,10.91,10.91,0,0,1,.49-3.24,8.32,8.32,0,0,1,1.43-2.74,6.76,6.76,0,0,1,2.33-1.9,7,7,0,0,1,3.22-.7,7.29,7.29,0,0,1,4.56,1.34,6.29,6.29,0,0,1,2.18,4.2Z"/><path class="cls-1" d="M89.08,74.23h2.07V77H89.08Zm.1,6.33h1.88V96.8H89.18Z"/><path class="cls-1" d="M103.31,87.33c.36,0,.78-.1,1.27-.18a4.76,4.76,0,0,0,1.21-.35,1,1,0,0,0,.58-.73,5,5,0,0,0,.11-1,3.24,3.24,0,0,0-.92-2.37,4.36,4.36,0,0,0-3.12-.92,9,9,0,0,0-1.79.17,3.91,3.91,0,0,0-1.43.6,3.29,3.29,0,0,0-1,1.12,5.05,5.05,0,0,0-.52,1.78H95.79A5.73,5.73,0,0,1,96.45,83a5.09,5.09,0,0,1,1.46-1.66,6.14,6.14,0,0,1,2.07-.94,10,10,0,0,1,2.49-.3,9.48,9.48,0,0,1,2.3.27,5.31,5.31,0,0,1,1.88.85,4,4,0,0,1,1.26,1.55,5.65,5.65,0,0,1,.45,2.38V94c0,.73.13,1.2.39,1.4s.79.15,1.59-.14v1.47l-.65.19a3,3,0,0,1-.83.12A3.86,3.86,0,0,1,108,97a1.42,1.42,0,0,1-.76-.3,1.88,1.88,0,0,1-.45-.56,2.41,2.41,0,0,1-.24-.73,5.4,5.4,0,0,1-.06-.83,8,8,0,0,1-6.05,2.7,7.35,7.35,0,0,1-2-.28,4.93,4.93,0,0,1-1.74-.88,4.33,4.33,0,0,1-1.19-1.46A4.49,4.49,0,0,1,95,92.57q0-4.14,5.67-4.89Zm3.17,1a9.18,9.18,0,0,1-2.41.65c-.82.11-1.63.19-2.45.25a6.9,6.9,0,0,0-3.37,1,2.77,2.77,0,0,0-1.2,2.47,2.59,2.59,0,0,0,1.08,2.21,3.19,3.19,0,0,0,1.13.53,4.74,4.74,0,0,0,1.3.18,8.88,8.88,0,0,0,2.19-.28,6,6,0,0,0,1.9-.87,4.17,4.17,0,0,0,1.83-3.59Z"/><path class="cls-1" d="M119,96.86l-.91.22a4.45,4.45,0,0,1-1.25.16,3,3,0,0,1-2.15-.71,3.43,3.43,0,0,1-.74-2.52V82.13h-2.29V80.56h2.29V76.05h1.88v4.51h3v1.57h-3V93.26c0,.4,0,.74,0,1A1.72,1.72,0,0,0,116,95a.91.91,0,0,0,.49.41,2.53,2.53,0,0,0,.92.13,5.09,5.09,0,0,0,.77-.06l.77-.16Z"/><path class="cls-1" d="M122.19,74.23h2.06V77h-2.06Zm.09,6.33h1.88V96.8h-1.88Z"/><path class="cls-1" d="M135.41,97.24a8.57,8.57,0,0,1-2.93-.56,6.62,6.62,0,0,1-2.38-1.6,7.7,7.7,0,0,1-1.62-2.67,10.81,10.81,0,0,1-.59-3.73,11.62,11.62,0,0,1,.47-3.34,7.86,7.86,0,0,1,1.41-2.71,6.76,6.76,0,0,1,2.35-1.83,8.49,8.49,0,0,1,6.61,0,6.77,6.77,0,0,1,2.36,1.82,7.49,7.49,0,0,1,1.39,2.71,12.05,12.05,0,0,1,.45,3.35,10.69,10.69,0,0,1-.53,3.51,7.74,7.74,0,0,1-1.52,2.7,6.76,6.76,0,0,1-2.38,1.74,7.58,7.58,0,0,1-3.09.61m5.52-8.56a11.47,11.47,0,0,0-.31-2.69,6.31,6.31,0,0,0-1-2.18A4.68,4.68,0,0,0,138,82.35a5.58,5.58,0,0,0-2.54-.53,5.1,5.1,0,0,0-2.52.58,5,5,0,0,0-1.71,1.53,6.76,6.76,0,0,0-1,2.2,10.3,10.3,0,0,0-.32,2.55,10.57,10.57,0,0,0,.36,2.78,7,7,0,0,0,1.05,2.18A4.94,4.94,0,0,0,133,95.05a5.44,5.44,0,0,0,2.38.5,5.21,5.21,0,0,0,2.52-.58,5,5,0,0,0,1.71-1.55,7,7,0,0,0,1-2.2,10.58,10.58,0,0,0,.31-2.54"/><path class="cls-1" d="M148.26,96.8h-1.88V80.56h1.88v2.26a12.1,12.1,0,0,1,2.34-1.94,5.38,5.38,0,0,1,2.9-.76,7.52,7.52,0,0,1,2.79.52,4.74,4.74,0,0,1,2.16,1.81,4.05,4.05,0,0,1,.71,1.8,17,17,0,0,1,.11,1.93V96.8h-1.88V86.21a4.81,4.81,0,0,0-1-3.29,4.07,4.07,0,0,0-3.22-1.1,4.75,4.75,0,0,0-1.6.26,5.09,5.09,0,0,0-1.3.71,4.69,4.69,0,0,0-1,1,5.05,5.05,0,0,0-.63,1.19,5.92,5.92,0,0,0-.34,1.51,15.24,15.24,0,0,0-.07,1.57Z"/></g></g></svg>