<svg width="263" height="97" viewBox="0 0 263 97" fill="none" xmlns="http://www.w3.org/2000/svg">
<g clip-path="url(#clip0_1801_18919)">
<path d="M154.73 96.6672H183.24L183.25 26.6572L154.73 96.6672Z" fill="#795A7A"/>
<path d="M194.58 1.02709L125.9 1.01709L126 26.9371L154.73 26.6871H154.76V74.8271C154.751 74.8461 154.739 74.8661 154.73 74.8851V96.6671L183.25 26.6571L194.58 1.02709Z" fill="#602561"/>
<path d="M225.87 1.01709L209.61 1.03709H209.52L209.42 26.6871L221.58 59.2171H196.75L209.42 26.6871H209.41H209.389L183.88 26.6671H183.25V28.1671L183.24 96.6671L190.24 79.2871H229.09L236 96.6671H262.41L225.87 1.01709Z" fill="#2EB99A"/>
<path d="M209.389 26.6869H209.41L209.52 1.03686H209.61V1.02686H194.58L183.25 26.6569L209.389 26.6869Z" fill="#795A7A"/>
<path d="M73.25 13.7471L72.93 14.1071L72.6 14.4771L72.27 14.8571L72.11 15.0371L71.88 15.2971L71.58 15.6871L71.29 16.0571L71.01 16.4171L70.77 16.7271L70.53 17.0471L70.31 17.3171L70.04 17.6871L69.77 18.0671L69.58 18.3571L69.36 18.6871L69.15 18.9871L68.9 19.3571L68.59 19.8571L68.27 20.3771L68.05 20.7471L67.81 21.1671L67.55 21.6271L67.23 22.2171L67 22.6271L66.82 23.0071L66.67 23.2971L66.45 23.7371L66.26 24.1271L66.07 24.5571L65.91 24.9171L65.73 25.3071L65.57 25.6971L65.35 26.1971L65.16 26.6871L64.97 27.1771L64.79 27.6571L64.61 28.1471L64.39 28.7271L64.22 29.2671L64.05 29.8271L63.84 30.4571L63.64 31.0871L63.51 31.5871L63.38 32.0371L63.15 32.9371L62.97 33.6871L62.84 34.2771L62.71 34.8571L62.53 35.6871L62.42 36.2971L62.31 36.9671L62.22 37.4971L62.09 38.2571L61.99 38.9871L61.89 39.6671L61.81 40.2771V41.3001L61.76 41.8001V42.2701L61.7 42.8401V43.3101V55.0501L61.75 55.5501V56.6001L61.87 57.3201L61.95 57.9201L62.03 58.4901L62.13 59.2001L62.26 60.2701L62.36 60.8201L62.5 61.5801L62.61 62.2201L62.69 62.7101V62.9501L62.76 63.2201L62.88 63.7501L62.99 64.1601L63.09 64.6001L63.18 64.9201L63.28 65.3201L63.4 65.8201L63.55 66.3201L63.7 66.8201L63.82 67.2201L63.96 67.7001L64.12 68.2001L64.26 68.6101L64.41 69.0101L64.58 69.4601L64.76 69.9601L64.87 70.2601L65.06 70.7801L65.21 71.1901L65.34 71.4901L65.52 71.8801L65.69 72.2701L65.83 72.6001L66 73.0301L66.18 73.4201L66.31 73.7101L66.6 74.2501L66.78 74.6001L67 74.9201L67.17 75.2701L67.31 75.5301L67.49 75.8701L67.84 76.5501L68.11 77.0501L68.29 77.3801L68.49 77.7401L68.75 78.1801L68.95 78.5001L69.21 78.8501L69.35 79.0901L69.4 79.1601L69.6 79.4601L69.83 79.7801C69.83 79.7801 75.26 87.8901 82.09 91.3901C90.45 95.6801 95.59 96.6001 105 96.6001H105.37L105.12 95.9701L95.28 70.9701L94.9 69.9701L93.22 65.4701L93.1 65.1701L92.88 64.6001L73.57 14.5771L73.25 13.7471Z" fill="#F37024"/>
<path d="M126 26.937H125.98L125.9 1.01703V1.00703C120.432 0.177025 114.898 -0.14102 109.37 0.0570302C95.46 0.50703 82.28 4.87703 73.37 13.797L73.67 14.607L92.88 64.6C92.8219 64.4494 92.7718 64.2959 92.73 64.14C91.4822 59.7864 90.8098 55.2882 90.73 50.76C90.73 39.4267 92.5167 31.5634 96.09 27.17C99.6633 22.7767 104.717 20.5867 111.25 20.6C117.597 20.6 122.62 22.84 126.32 27.32C127.081 28.2751 127.751 29.2996 128.32 30.38C128.8 31.25 129.84 34.01 129.84 34.01C131.304 39.0011 131.979 44.1905 131.84 49.39C131.22 60.77 129.91 66.6 126.47 70.97C123.03 75.34 117.85 77.6 111.32 77.6C105 77.6 100 75.33 96.25 70.85C95.4776 69.9032 94.8072 68.8775 94.25 67.79C94.25 67.79 93.69 66.61 93.25 65.5L94.94 70L95.32 71L105.16 96L105.4 96.59C106.27 96.65 109.4 96.8 111.35 96.8C121.93 96.8 130.767 94.8 137.86 90.8C144.95 86.8 150.65 82.65 154.4 75.52C154.51 75.32 154.626 75.1 154.73 74.888V26.688L126 26.937Z" fill="#ED4E33"/>
<path d="M154.76 26.687H154.73V74.887C154.739 74.868 154.751 74.848 154.76 74.829V26.687Z" fill="#ED4E33"/>
<path d="M125.98 26.9371H126L125.9 1.01709L125.98 26.9371Z" fill="#ED4E33"/>
<path d="M82.09 91.3869C75.26 87.8869 69.83 79.7769 69.83 79.7769L69.6 79.4569L69.4 79.1569L69.35 79.0869L69.21 78.8469L68.95 78.4969L68.75 78.1769L68.49 77.7369L68.29 77.3769L68.11 77.0469L67.84 76.5469L67.49 75.8669L67.31 75.5269L67.17 75.2769L67 74.9169L66.78 74.5969L66.6 74.2469L66.31 73.7069L66.18 73.4169L66 73.0269L65.83 72.5969L65.69 72.2669L65.52 71.8769L65.34 71.4869L65.21 71.1869L65.06 70.7769L64.87 70.2569L64.76 69.9569L64.58 69.4569L64.41 69.0069L64.26 68.6069L64.12 68.1969L63.96 67.6969L63.82 67.2169L63.7 66.8169L63.55 66.3169L63.4 65.8169L63.28 65.3169L63.18 64.9169L63.09 64.5969L62.99 64.1569L62.88 63.7469L62.76 63.2169L62.69 62.9469V62.7069L62.61 62.2169L62.5 61.5769L62.36 60.8169L62.26 60.2669L62.13 59.1969L62.03 58.4869L61.95 57.9169L61.87 57.3169L61.75 56.5969V55.5469L61.7 55.0469V43.3069V42.8369L61.76 42.2669V41.7999L61.81 41.2999V40.2799L61.89 39.6699L61.99 38.9899L62.09 38.2599L62.22 37.4999L62.31 36.9699L62.42 36.2999L62.53 35.6899L62.71 34.8599L62.84 34.2799L62.97 33.6899L63.15 32.9399L63.38 32.0399L63.51 31.5899L63.64 31.0899L63.84 30.4599L64.05 29.8299L64.22 29.2699L64.39 28.7299L64.61 28.1499L64.79 27.6599L64.97 27.1799L65.16 26.6899L65.35 26.1999L65.57 25.6999L65.73 25.3099L65.91 24.9199L66.07 24.5599L66.26 24.1299L66.45 23.7399L66.67 23.2999L66.82 23.0099L67 22.6299L67.23 22.2199L67.55 21.6299L67.81 21.1699L68.05 20.7499L68.27 20.3799L68.59 19.8599L68.9 19.3599L69.15 18.9899L69.36 18.6899L69.58 18.3599L69.77 18.0699L70.04 17.6899L70.31 17.3199L70.53 17.0499L70.77 16.7299L71.01 16.4199L71.29 16.0599L71.58 15.6899L71.88 15.2999L72.11 15.0399L72.27 14.8599L72.6 14.4799L72.93 14.1099L73.25 13.7499L67.73 1.02686H36.25L0 96.5999H25.22L31.68 79.4399H69.47L75.08 94.6999L75.78 96.6299L105.37 96.5999H105C95.59 96.5999 90.45 95.6769 82.09 91.3869ZM40.37 59.2069L52 26.6869L62.08 59.2169L40.37 59.2069Z" fill="#F8C14A"/>
<path d="M65.57 25.697L65.73 25.307L65.91 24.917L65.73 25.307L65.57 25.697Z" fill="#F8C14A"/>
<path d="M65.91 24.917L66.07 24.557L66.26 24.127L66.07 24.557L65.91 24.917Z" fill="#F8C14A"/>
</g>
<defs>
<clipPath id="clip0_1801_18919">
<rect width="262.41" height="96.797" fill="white"/>
</clipPath>
</defs>
</svg>
