<svg xmlns="http://www.w3.org/2000/svg" viewBox="0 0 586.98 97.24"><defs><style>.cls-1,.cls-2{fill:#4d4d4f;}.cls-2,.cls-3{font-size:31.04px;font-family:Helvetica-Light, Helvetica;font-weight:300;}.cls-3{fill:#6d6e71;}.cls-4{fill:#795a7a;}.cls-5{fill:#602561;}.cls-6{fill:#2eb99a;}.cls-7{fill:#f37024;}.cls-8{fill:#ed4e33;}.cls-9{fill:#f8c14a;}</style></defs><g id="Layer_2" data-name="Layer 2"><g id="Layer_1-2" data-name="Layer 1"><path class="cls-1" d="M271.86,25.22l9.4-23.89h2.55L293,25.22h-2.32l-2.76-7.5H277l-2.82,7.5Zm5.91-9.42h9.36L282.45,3.26Z"/><path class="cls-1" d="M297.62,25.22h-2V8h2v2.59h.06a5.28,5.28,0,0,1,2.19-2.27A6.39,6.39,0,0,1,303,7.57a6.65,6.65,0,0,1,2,.27,4.45,4.45,0,0,1,1.41.71,4.5,4.5,0,0,1,1,1,7.51,7.51,0,0,1,.65,1.3,5.75,5.75,0,0,1,2.3-2.51,6.68,6.68,0,0,1,3.31-.81,5.75,5.75,0,0,1,2.8.58,4.24,4.24,0,0,1,1.61,1.53,6.13,6.13,0,0,1,.75,2.17,17.38,17.38,0,0,1,.18,2.52V25.22h-2V13.34a4.86,4.86,0,0,0-.78-2.92,3.43,3.43,0,0,0-2.91-1.06,4.82,4.82,0,0,0-2.1.48,4.89,4.89,0,0,0-1.78,1.48,4,4,0,0,0-.55,1,9.39,9.39,0,0,0-.35,1.21q-.12.63-.18,1.26c0,.42-.05.81-.05,1.17v9.25h-2V13.34a4.86,4.86,0,0,0-.78-2.92,3.42,3.42,0,0,0-2.9-1.06,4.86,4.86,0,0,0-2.11.48,5,5,0,0,0-1.78,1.48,3.73,3.73,0,0,0-.54,1,8,8,0,0,0-.35,1.21,9.1,9.1,0,0,0-.18,1.26c0,.42-.05.81-.05,1.17Z"/><path class="cls-1" d="M324.76,17.09a9.11,9.11,0,0,0,.37,2.64,6.26,6.26,0,0,0,1.08,2.16,5.18,5.18,0,0,0,1.8,1.46,5.64,5.64,0,0,0,2.53.55,5.53,5.53,0,0,0,3.35-1A5,5,0,0,0,335.75,20H338a10.47,10.47,0,0,1-1,2.27,7,7,0,0,1-1.5,1.83,6.38,6.38,0,0,1-2.12,1.21,8.8,8.8,0,0,1-2.85.43A8.28,8.28,0,0,1,327,25a6.64,6.64,0,0,1-2.45-1.91,8,8,0,0,1-1.43-2.85,12.93,12.93,0,0,1-.46-3.53,11.16,11.16,0,0,1,.55-3.56,9.07,9.07,0,0,1,1.55-2.9,7.32,7.32,0,0,1,2.48-2,7.53,7.53,0,0,1,3.32-.71A6.84,6.84,0,0,1,336.11,10c1.35,1.62,2,4,2,7.08ZM336,15.43a7.94,7.94,0,0,0-.35-2.37,5.54,5.54,0,0,0-1-1.92,4.86,4.86,0,0,0-1.71-1.3,5.48,5.48,0,0,0-2.35-.48,5.18,5.18,0,0,0-4.07,1.83,6.35,6.35,0,0,0-1.14,1.92,9,9,0,0,0-.57,2.32Z"/><path class="cls-1" d="M344.08,25.22h-2V8h2v3.22h.06a5.82,5.82,0,0,1,2.14-2.87,6.55,6.55,0,0,1,3.47-.81V9.73a5.68,5.68,0,0,0-2.79.53,4.51,4.51,0,0,0-1.74,1.52,6.19,6.19,0,0,0-.9,2.28,15.1,15.1,0,0,0-.24,2.74Z"/><path class="cls-1" d="M353.24,1.33h2.19v3h-2.19Zm.09,6.7h2V25.22h-2Z"/><path class="cls-1" d="M372.58,13.44a5.77,5.77,0,0,0-1.82-3,5,5,0,0,0-3.29-1.08,5.16,5.16,0,0,0-2.62.63,5.24,5.24,0,0,0-1.79,1.68A7.34,7.34,0,0,0,362,14a10.85,10.85,0,0,0-.33,2.64,11.25,11.25,0,0,0,.31,2.66,7.24,7.24,0,0,0,1,2.32,5.24,5.24,0,0,0,1.8,1.64,5.33,5.33,0,0,0,2.65.62A5.1,5.1,0,0,0,371,22.67a5.74,5.74,0,0,0,1.71-3.39h2.12a10.51,10.51,0,0,1-.84,2.61,6.91,6.91,0,0,1-1.5,2,6.33,6.33,0,0,1-2.17,1.31,9.25,9.25,0,0,1-6.44-.23,6.67,6.67,0,0,1-2.46-1.91A8,8,0,0,1,360,20.21a13.07,13.07,0,0,1-.47-3.55,11.18,11.18,0,0,1,.52-3.43,8.76,8.76,0,0,1,1.51-2.91,7.2,7.2,0,0,1,2.47-2,7.4,7.4,0,0,1,3.4-.75A7.62,7.62,0,0,1,372.3,9a6.61,6.61,0,0,1,2.31,4.44Z"/><path class="cls-1" d="M386.75,15.2c.38,0,.83-.11,1.35-.2a5.28,5.28,0,0,0,1.27-.36,1.07,1.07,0,0,0,.62-.78,4.71,4.71,0,0,0,.11-1,3.4,3.4,0,0,0-1-2.51,4.61,4.61,0,0,0-3.31-1,9.33,9.33,0,0,0-1.89.18,4.46,4.46,0,0,0-1.51.63,3.53,3.53,0,0,0-1.06,1.2,5,5,0,0,0-.55,1.87h-2a6,6,0,0,1,.7-2.6A5.15,5.15,0,0,1,381,8.88a6.46,6.46,0,0,1,2.19-1,10.73,10.73,0,0,1,2.64-.31,10.14,10.14,0,0,1,2.44.28,5.75,5.75,0,0,1,2,.9,4.14,4.14,0,0,1,1.32,1.64,5.81,5.81,0,0,1,.49,2.52v9.36c0,.78.13,1.27.41,1.48s.84.16,1.68-.15v1.56l-.68.2a3.08,3.08,0,0,1-.88.13,3.82,3.82,0,0,1-.9-.1,1.49,1.49,0,0,1-.8-.32,1.84,1.84,0,0,1-.48-.59,2.68,2.68,0,0,1-.25-.77,6.09,6.09,0,0,1-.06-.88A8.74,8.74,0,0,1,387.25,25a8.44,8.44,0,0,1-3.52.73,7.84,7.84,0,0,1-2.17-.3,5.24,5.24,0,0,1-1.84-.93,4.6,4.6,0,0,1-1.26-1.54,4.74,4.74,0,0,1-.47-2.18q0-4.38,6-5.17Zm3.35,1a9.86,9.86,0,0,1-2.55.69c-.86.12-1.73.2-2.59.27a7.23,7.23,0,0,0-3.57,1,2.94,2.94,0,0,0-1.27,2.62,2.76,2.76,0,0,0,1.14,2.34,3.5,3.5,0,0,0,1.2.56,4.92,4.92,0,0,0,1.37.19,9.08,9.08,0,0,0,2.33-.3,6.2,6.2,0,0,0,2-.91,4.59,4.59,0,0,0,1.41-1.56,4.45,4.45,0,0,0,.53-2.24Z"/><path class="cls-1" d="M399.3,25.22h-2V8h2v2.39a12.44,12.44,0,0,1,2.47-2.05,5.71,5.71,0,0,1,3.07-.8,7.71,7.71,0,0,1,3,.55A5,5,0,0,1,410.08,10a4.26,4.26,0,0,1,.75,1.9,16.94,16.94,0,0,1,.12,2V25.22h-2V14a5.17,5.17,0,0,0-1-3.49,4.4,4.4,0,0,0-3.42-1.16,5.09,5.09,0,0,0-1.7.28,5.5,5.5,0,0,0-1.37.75,5,5,0,0,0-1.05,1.06,4.76,4.76,0,0,0-.66,1.26,6.68,6.68,0,0,0-.37,1.6c0,.51-.06,1.06-.06,1.66Z"/><text class="cls-2" transform="translate(402.33 26.67)"> </text><path class="cls-1" d="M273,50.09a15.49,15.49,0,0,1,.67-4.64,11.1,11.1,0,0,1,2-3.78A9.4,9.4,0,0,1,279,39.12a10.14,10.14,0,0,1,4.48-.95,10.84,10.84,0,0,1,4.63.93,9.41,9.41,0,0,1,3.32,2.54,10.93,10.93,0,0,1,2,3.79,16,16,0,0,1,.67,4.66,15.53,15.53,0,0,1-.67,4.59,11.37,11.37,0,0,1-2,3.76A9.28,9.28,0,0,1,288.1,61,11.6,11.6,0,0,1,279,61a9.24,9.24,0,0,1-3.29-2.55,11,11,0,0,1-2-3.76,15.86,15.86,0,0,1-.65-4.59m10.53,10a8.11,8.11,0,0,0,3.78-.83,7.65,7.65,0,0,0,2.6-2.21,9.35,9.35,0,0,0,1.5-3.2,14.38,14.38,0,0,0,.49-3.79,14.07,14.07,0,0,0-.58-4.22,9.28,9.28,0,0,0-1.68-3.18,7.2,7.2,0,0,0-2.66-2A8.66,8.66,0,0,0,283.5,40a7.78,7.78,0,0,0-3.75.85,7.62,7.62,0,0,0-2.6,2.24,9.7,9.7,0,0,0-1.51,3.21,15.36,15.36,0,0,0,0,7.62,9.56,9.56,0,0,0,1.51,3.2,7.38,7.38,0,0,0,2.6,2.19,8.18,8.18,0,0,0,3.81.82"/><path class="cls-1" d="M309.51,50.21a5.48,5.48,0,0,0-1.72-2.84,4.74,4.74,0,0,0-3.1-1,5,5,0,0,0-2.48.59,5.12,5.12,0,0,0-1.69,1.58,6.9,6.9,0,0,0-1,2.23,10.12,10.12,0,0,0-.32,2.49,10.51,10.51,0,0,0,.3,2.51,6.67,6.67,0,0,0,1,2.19,4.87,4.87,0,0,0,1.69,1.56,5.12,5.12,0,0,0,2.51.58,4.82,4.82,0,0,0,3.37-1.16,5.45,5.45,0,0,0,1.61-3.2h2a9.73,9.73,0,0,1-.8,2.46,6.63,6.63,0,0,1-1.41,1.91,6.1,6.1,0,0,1-2.06,1.24,8.77,8.77,0,0,1-6.08-.22,6.4,6.4,0,0,1-2.32-1.8,7.73,7.73,0,0,1-1.34-2.71,12.18,12.18,0,0,1-.44-3.36,10.86,10.86,0,0,1,.48-3.24,8.41,8.41,0,0,1,1.43-2.74,6.76,6.76,0,0,1,2.33-1.9,7,7,0,0,1,3.22-.71A7.23,7.23,0,0,1,309.25,46a6.29,6.29,0,0,1,2.18,4.2Z"/><path class="cls-1" d="M326.94,50.21a5.48,5.48,0,0,0-1.72-2.84,4.74,4.74,0,0,0-3.11-1,4.93,4.93,0,0,0-2.47.59A5,5,0,0,0,318,48.53a7.14,7.14,0,0,0-1,2.23,10.11,10.11,0,0,0-.31,2.49,10.51,10.51,0,0,0,.3,2.51,6.87,6.87,0,0,0,1,2.19,5,5,0,0,0,1.7,1.56,5.1,5.1,0,0,0,2.5.58,4.81,4.81,0,0,0,3.37-1.16,5.4,5.4,0,0,0,1.62-3.2h2a9.34,9.34,0,0,1-.79,2.46,6.48,6.48,0,0,1-1.42,1.91,6,6,0,0,1-2.05,1.24,8.77,8.77,0,0,1-6.08-.22,6.4,6.4,0,0,1-2.32-1.8,7.58,7.58,0,0,1-1.35-2.71,12.57,12.57,0,0,1-.44-3.36,10.86,10.86,0,0,1,.49-3.24,8.22,8.22,0,0,1,1.43-2.74,6.76,6.76,0,0,1,2.33-1.9,7,7,0,0,1,3.21-.71A7.26,7.26,0,0,1,326.68,46a6.29,6.29,0,0,1,2.17,4.2Z"/><path class="cls-1" d="M343.87,45.1h1.88V61.34h-1.88V59.08A11.66,11.66,0,0,1,343,60a6.28,6.28,0,0,1-1.08.86,6,6,0,0,1-3.31.93,7,7,0,0,1-2.72-.46,4.25,4.25,0,0,1-1.77-1.27,5,5,0,0,1-1-1.89,9.27,9.27,0,0,1-.29-2.37V45.1h1.88V55.76a4.72,4.72,0,0,0,1,3.21,4.06,4.06,0,0,0,3.2,1.12,4.71,4.71,0,0,0,2.08-.46,4.24,4.24,0,0,0,1.55-1.27,6,6,0,0,0,1-1.94,8.44,8.44,0,0,0,.35-2.48Z"/><path class="cls-1" d="M352.39,67.73h-1.88V45.1h1.88V48h.07a5.51,5.51,0,0,1,1.05-1.41,5.94,5.94,0,0,1,1.41-1,7.89,7.89,0,0,1,1.58-.63,6.42,6.42,0,0,1,1.6-.22,7.7,7.7,0,0,1,3.35.66,6.34,6.34,0,0,1,2.28,1.8,7.63,7.63,0,0,1,1.3,2.72,13.32,13.32,0,0,1,.4,3.35,11.77,11.77,0,0,1-.44,3.26,8,8,0,0,1-1.33,2.74,6.53,6.53,0,0,1-2.25,1.88,6.92,6.92,0,0,1-3.22.71,7.47,7.47,0,0,1-3.3-.77,5.84,5.84,0,0,1-2.5-2.27Zm0-14.45a9,9,0,0,0,.38,2.62,6.64,6.64,0,0,0,1.08,2.16,5.35,5.35,0,0,0,1.73,1.48,4.8,4.8,0,0,0,2.3.55,5.33,5.33,0,0,0,2.52-.58,5,5,0,0,0,1.77-1.59,6.84,6.84,0,0,0,1-2.33,10.67,10.67,0,0,0,.25-2.87A7.79,7.79,0,0,0,363,50a5.67,5.67,0,0,0-1.17-2,4.91,4.91,0,0,0-1.76-1.24,5.62,5.62,0,0,0-2.19-.42,5,5,0,0,0-2.35.53,4.88,4.88,0,0,0-1.73,1.46,6.56,6.56,0,0,0-1.05,2.19,10,10,0,0,0-.36,2.74"/><path class="cls-1" d="M376.91,51.87c.35,0,.78-.1,1.27-.18a4.8,4.8,0,0,0,1.2-.35,1,1,0,0,0,.58-.74,4.14,4.14,0,0,0,.11-1,3.24,3.24,0,0,0-.92-2.37,4.31,4.31,0,0,0-3.12-.92,8.37,8.37,0,0,0-1.79.17,3.78,3.78,0,0,0-1.42.59,3.35,3.35,0,0,0-1,1.13A4.74,4.74,0,0,0,371.3,50h-1.92a6,6,0,0,1,.66-2.46,5,5,0,0,1,1.46-1.66,6.12,6.12,0,0,1,2.07-.94,10,10,0,0,1,2.49-.3,9.56,9.56,0,0,1,2.31.27,5.39,5.39,0,0,1,1.88.85,3.86,3.86,0,0,1,1.25,1.55,5.65,5.65,0,0,1,.45,2.38v8.84c0,.73.13,1.2.4,1.39s.78.16,1.58-.14v1.48l-.64.18a2.76,2.76,0,0,1-.83.13,3.89,3.89,0,0,1-.85-.09,1.5,1.5,0,0,1-.75-.3,2,2,0,0,1-.46-.57,2.34,2.34,0,0,1-.23-.72,5.35,5.35,0,0,1-.07-.83,8.12,8.12,0,0,1-2.72,2,8,8,0,0,1-3.33.69A7.74,7.74,0,0,1,372,61.5a4.93,4.93,0,0,1-1.74-.88,4.33,4.33,0,0,1-1.19-1.46,4.49,4.49,0,0,1-.44-2q0-4.14,5.68-4.89Zm3.16.94a8.83,8.83,0,0,1-2.41.66c-.82.11-1.63.19-2.45.25a6.94,6.94,0,0,0-3.36,1,2.79,2.79,0,0,0-1.21,2.48,2.65,2.65,0,0,0,1.08,2.21,3.19,3.19,0,0,0,1.13.53,4.8,4.8,0,0,0,1.3.18,8.44,8.44,0,0,0,2.19-.29,5.68,5.68,0,0,0,1.9-.86,4.46,4.46,0,0,0,1.33-1.47,4.21,4.21,0,0,0,.5-2.12Z"/><path class="cls-1" d="M392.58,61.4c-.23,0-.53.12-.91.22a4.8,4.8,0,0,1-1.25.16,3,3,0,0,1-2.15-.71,3.43,3.43,0,0,1-.74-2.52V46.67h-2.29V45.1h2.29V40.59h1.88V45.1h3v1.57h-3V57.8c0,.39,0,.74,0,1a2,2,0,0,0,.19.72.91.91,0,0,0,.49.41,2.77,2.77,0,0,0,.92.13,5,5,0,0,0,.77-.07c.26,0,.52-.09.77-.15Z"/><path class="cls-1" d="M395.78,38.77h2.07v2.79h-2.07Zm.09,6.33h1.88V61.34h-1.88Z"/><path class="cls-1" d="M409,61.78a8.35,8.35,0,0,1-2.93-.57,6.47,6.47,0,0,1-2.38-1.59A7.62,7.62,0,0,1,402.08,57a10.61,10.61,0,0,1-.6-3.73,11.62,11.62,0,0,1,.47-3.34,7.77,7.77,0,0,1,1.41-2.71,6.76,6.76,0,0,1,2.35-1.83,7.55,7.55,0,0,1,3.29-.68,7.64,7.64,0,0,1,3.33.68,6.83,6.83,0,0,1,2.35,1.81,7.61,7.61,0,0,1,1.39,2.72,12.05,12.05,0,0,1,.46,3.35,10.69,10.69,0,0,1-.54,3.51,7.83,7.83,0,0,1-1.52,2.7,6.67,6.67,0,0,1-2.38,1.74,7.74,7.74,0,0,1-3.09.61m5.52-8.56a11.11,11.11,0,0,0-.31-2.7,6.53,6.53,0,0,0-1-2.17,4.62,4.62,0,0,0-1.7-1.46,5.43,5.43,0,0,0-2.54-.53,5.1,5.1,0,0,0-2.52.58,4.85,4.85,0,0,0-1.71,1.53,6.76,6.76,0,0,0-1,2.2,10.24,10.24,0,0,0-.31,2.55,10.09,10.09,0,0,0,.36,2.77,6.41,6.41,0,0,0,1,2.18,4.62,4.62,0,0,0,1.72,1.41,5.34,5.34,0,0,0,2.38.51,5.23,5.23,0,0,0,2.53-.58A4.93,4.93,0,0,0,413.24,58a7.13,7.13,0,0,0,1-2.19,10.16,10.16,0,0,0,.31-2.54"/><path class="cls-1" d="M421.85,61.34H420V45.1h1.88v2.26a12.41,12.41,0,0,1,2.34-1.94,5.29,5.29,0,0,1,2.9-.76,7.52,7.52,0,0,1,2.79.52A4.78,4.78,0,0,1,432,47a4.13,4.13,0,0,1,.71,1.81,16.82,16.82,0,0,1,.11,1.92V61.34H431V50.74a4.83,4.83,0,0,0-1-3.29,4.1,4.1,0,0,0-3.22-1.09,4.75,4.75,0,0,0-1.6.26,5.09,5.09,0,0,0-1.3.71,4.47,4.47,0,0,0-1,1,4.87,4.87,0,0,0-.63,1.19,5.82,5.82,0,0,0-.34,1.51c0,.48-.07,1-.07,1.56Z"/><path class="cls-1" d="M444.86,51.87c.36,0,.78-.1,1.27-.18a4.89,4.89,0,0,0,1.21-.35,1,1,0,0,0,.58-.74,4.78,4.78,0,0,0,.11-1,3.21,3.21,0,0,0-.93-2.37,4.27,4.27,0,0,0-3.11-.92,8.31,8.31,0,0,0-1.79.17,3.89,3.89,0,0,0-1.43.59,3.32,3.32,0,0,0-1,1.13,4.93,4.93,0,0,0-.52,1.77h-1.91a5.72,5.72,0,0,1,.66-2.46,4.89,4.89,0,0,1,1.46-1.66,6,6,0,0,1,2.07-.94,10,10,0,0,1,2.49-.3,9.48,9.48,0,0,1,2.3.27,5.31,5.31,0,0,1,1.88.85,3.88,3.88,0,0,1,1.26,1.55,5.65,5.65,0,0,1,.45,2.38v8.84c0,.73.13,1.2.39,1.39s.79.16,1.59-.14v1.48l-.65.18a2.71,2.71,0,0,1-.83.13,4,4,0,0,1-.85-.09,1.5,1.5,0,0,1-.75-.3,1.78,1.78,0,0,1-.45-.57,2.35,2.35,0,0,1-.24-.72,5.4,5.4,0,0,1-.06-.83,8,8,0,0,1-6.05,2.7A7.74,7.74,0,0,1,440,61.5a4.93,4.93,0,0,1-1.74-.88,4.25,4.25,0,0,1-1.63-3.51q0-4.14,5.67-4.89Zm3.17.94a8.93,8.93,0,0,1-2.41.66c-.82.11-1.63.19-2.45.25a7,7,0,0,0-3.37,1,2.81,2.81,0,0,0-1.21,2.48,2.63,2.63,0,0,0,1.09,2.21,3.22,3.22,0,0,0,1.12.53,4.85,4.85,0,0,0,1.3.18,8.46,8.46,0,0,0,2.2-.29,5.77,5.77,0,0,0,1.9-.86,4.57,4.57,0,0,0,1.33-1.47,4.32,4.32,0,0,0,.5-2.12Z"/><rect class="cls-1" x="455.11" y="38.77" width="1.88" height="22.57"/><polygon class="cls-1" points="468.75 38.77 485.17 38.77 485.17 40.59 478.03 40.59 478.03 61.34 475.89 61.34 475.89 40.59 468.75 40.59 468.75 38.77"/><path class="cls-1" d="M487.93,61.34V38.77h1.88v8.59a11.81,11.81,0,0,1,2.34-1.94,5.29,5.29,0,0,1,2.9-.76,7.52,7.52,0,0,1,2.79.52A4.83,4.83,0,0,1,500,47a4,4,0,0,1,.7,1.81,14.77,14.77,0,0,1,.12,1.92V61.34h-1.89V50.74a4.82,4.82,0,0,0-1-3.29,4.13,4.13,0,0,0-3.23-1.09,4.73,4.73,0,0,0-1.59.26,5.15,5.15,0,0,0-1.31.71,4.64,4.64,0,0,0-1,1,4.87,4.87,0,0,0-.63,1.19,5.82,5.82,0,0,0-.34,1.51,15.17,15.17,0,0,0-.07,1.56v8.75Z"/><path class="cls-1" d="M506.52,53.66a8.76,8.76,0,0,0,.34,2.49,6.3,6.3,0,0,0,1,2,5.06,5.06,0,0,0,1.71,1.38,5.34,5.34,0,0,0,2.38.52,5.18,5.18,0,0,0,3.17-1,4.66,4.66,0,0,0,1.76-2.76H519a10.37,10.37,0,0,1-.91,2.15,6.77,6.77,0,0,1-1.41,1.73,6.19,6.19,0,0,1-2,1.14,8.15,8.15,0,0,1-2.7.41,7.85,7.85,0,0,1-3.35-.66,6.4,6.4,0,0,1-2.32-1.8,7.54,7.54,0,0,1-1.35-2.7,12.32,12.32,0,0,1-.44-3.34,10.73,10.73,0,0,1,.52-3.35,8.78,8.78,0,0,1,1.47-2.74,6.82,6.82,0,0,1,2.34-1.85,7,7,0,0,1,3.13-.68A6.46,6.46,0,0,1,517.24,47c1.28,1.53,1.9,3.76,1.88,6.69Zm10.59-1.57a7.44,7.44,0,0,0-.32-2.24,5.23,5.23,0,0,0-1-1.82,4.5,4.5,0,0,0-1.61-1.22,5.25,5.25,0,0,0-2.23-.45,4.89,4.89,0,0,0-2.21.47,5.14,5.14,0,0,0-1.63,1.25,6.22,6.22,0,0,0-1.08,1.82,8.35,8.35,0,0,0-.53,2.19Z"/><path class="cls-1" d="M524.76,61.34h-1.88V45.1h1.88v3h.07a5.41,5.41,0,0,1,2-2.71,6.13,6.13,0,0,1,3.27-.77v2a5.57,5.57,0,0,0-2.63.5,4.45,4.45,0,0,0-1.65,1.44,5.79,5.79,0,0,0-.84,2.15,13.63,13.63,0,0,0-.24,2.59Z"/><path class="cls-1" d="M540.69,51.87c.35,0,.78-.1,1.27-.18a4.8,4.8,0,0,0,1.2-.35,1,1,0,0,0,.58-.74,4.14,4.14,0,0,0,.11-1,3.24,3.24,0,0,0-.92-2.37,4.31,4.31,0,0,0-3.12-.92,8.37,8.37,0,0,0-1.79.17,3.78,3.78,0,0,0-1.42.59,3.35,3.35,0,0,0-1,1.13,4.74,4.74,0,0,0-.51,1.77h-1.92a6,6,0,0,1,.66-2.46,5,5,0,0,1,1.46-1.66,6,6,0,0,1,2.07-.94,10,10,0,0,1,2.49-.3,9.56,9.56,0,0,1,2.31.27,5.39,5.39,0,0,1,1.88.85,3.86,3.86,0,0,1,1.25,1.55,5.65,5.65,0,0,1,.45,2.38v8.84c0,.73.13,1.2.4,1.39s.78.16,1.58-.14v1.48l-.64.18a2.76,2.76,0,0,1-.83.13,3.89,3.89,0,0,1-.85-.09,1.47,1.47,0,0,1-.75-.3,2,2,0,0,1-.46-.57,2.34,2.34,0,0,1-.23-.72,5.35,5.35,0,0,1-.07-.83,8.12,8.12,0,0,1-2.72,2,8,8,0,0,1-3.33.69,7.74,7.74,0,0,1-2.05-.28,4.93,4.93,0,0,1-1.74-.88,4.33,4.33,0,0,1-1.19-1.46,4.49,4.49,0,0,1-.44-2q0-4.14,5.68-4.89Zm3.16.94a8.83,8.83,0,0,1-2.41.66c-.82.11-1.63.19-2.45.25a7,7,0,0,0-3.37,1,2.8,2.8,0,0,0-1.2,2.48,2.65,2.65,0,0,0,1.08,2.21,3.19,3.19,0,0,0,1.13.53,4.8,4.8,0,0,0,1.3.18,8.44,8.44,0,0,0,2.19-.29,5.68,5.68,0,0,0,1.9-.86,4.46,4.46,0,0,0,1.33-1.47,4.21,4.21,0,0,0,.5-2.12Z"/><path class="cls-1" d="M552.75,67.73h-1.88V45.1h1.88V48h.07a5.51,5.51,0,0,1,1-1.41,6.15,6.15,0,0,1,1.41-1,7.89,7.89,0,0,1,1.58-.63,6.42,6.42,0,0,1,1.6-.22,7.7,7.7,0,0,1,3.35.66,6.34,6.34,0,0,1,2.28,1.8,7.47,7.47,0,0,1,1.3,2.72,13.32,13.32,0,0,1,.4,3.35,11.77,11.77,0,0,1-.44,3.26A8,8,0,0,1,564,59.19a6.44,6.44,0,0,1-2.25,1.88,6.92,6.92,0,0,1-3.22.71,7.47,7.47,0,0,1-3.3-.77,5.84,5.84,0,0,1-2.5-2.27Zm0-14.45a9,9,0,0,0,.38,2.62,6.64,6.64,0,0,0,1.08,2.16,5.35,5.35,0,0,0,1.73,1.48,4.83,4.83,0,0,0,2.3.55,5.33,5.33,0,0,0,2.52-.58,5,5,0,0,0,1.77-1.59,6.84,6.84,0,0,0,1-2.33,10.67,10.67,0,0,0,.25-2.87,7.79,7.79,0,0,0-.43-2.71,5.67,5.67,0,0,0-1.17-2,4.91,4.91,0,0,0-1.76-1.24,5.59,5.59,0,0,0-2.19-.42,4.92,4.92,0,0,0-4.08,2,6.75,6.75,0,0,0-1,2.19,10,10,0,0,0-.36,2.74"/><path class="cls-1" d="M569.68,65.73l.77.12a5.29,5.29,0,0,0,.8.07,1.74,1.74,0,0,0,1.28-.5,4,4,0,0,0,.83-1.21,9.25,9.25,0,0,0,.55-1.47,6.78,6.78,0,0,1,.51-1.3L568.11,45.1h2.1l5.21,13.95,5.2-13.95h2l-6,16q-.57,1.53-1.08,2.76a12.49,12.49,0,0,1-1.1,2.08,4.5,4.5,0,0,1-1.28,1.32,3.06,3.06,0,0,1-1.68.45,7.27,7.27,0,0,1-1-.06,6.12,6.12,0,0,1-.83-.16Z"/><text class="cls-3" transform="translate(578.35 61.79)"> </text><path class="cls-1" d="M271.84,96.8l8.87-22.57h2.41l8.65,22.57h-2.19L287,89.72H276.69L274,96.8Zm5.58-8.9h8.83l-4.42-11.85Z"/><path class="cls-1" d="M295.63,91.72a4.81,4.81,0,0,0,1.58,3,5.39,5.39,0,0,0,3.28.86,5.88,5.88,0,0,0,1.78-.25,3.67,3.67,0,0,0,1.24-.68,3,3,0,0,0,.74-1,2.77,2.77,0,0,0,.25-1.13,2.07,2.07,0,0,0-.77-1.77,5.77,5.77,0,0,0-1.93-.91,25.28,25.28,0,0,0-2.51-.57,12.08,12.08,0,0,1-2.5-.7,4.88,4.88,0,0,1-1.93-1.35,3.65,3.65,0,0,1-.77-2.48,4.23,4.23,0,0,1,1.49-3.33,6.2,6.2,0,0,1,4.22-1.31,7.19,7.19,0,0,1,4.27,1.18,5.41,5.41,0,0,1,2,3.93h-1.92a3.48,3.48,0,0,0-1.42-2.64,5.27,5.27,0,0,0-3-.77,4.14,4.14,0,0,0-2.72.77,2.46,2.46,0,0,0-.94,2,1.94,1.94,0,0,0,.77,1.67,6.15,6.15,0,0,0,1.92,1c.78.24,1.61.45,2.51.64a12.28,12.28,0,0,1,2.51.8,5.59,5.59,0,0,1,1.93,1.39,3.61,3.61,0,0,1,.76,2.45,4.07,4.07,0,0,1-.5,2,4.27,4.27,0,0,1-1.38,1.49,6.35,6.35,0,0,1-2.08.89,11,11,0,0,1-2.65.3,7.18,7.18,0,0,1-2.55-.42,5.61,5.61,0,0,1-1.9-1.18,5.47,5.47,0,0,1-1.22-1.75,6,6,0,0,1-.5-2.17Z"/><path class="cls-1" d="M311.3,91.72a4.81,4.81,0,0,0,1.58,3,5.43,5.43,0,0,0,3.28.86A6,6,0,0,0,318,95.3a3.61,3.61,0,0,0,1.23-.68,2.89,2.89,0,0,0,.74-1,2.62,2.62,0,0,0,.25-1.13,2.07,2.07,0,0,0-.77-1.77,5.71,5.71,0,0,0-1.92-.91c-.78-.22-1.62-.41-2.51-.57a12,12,0,0,1-2.51-.7,5,5,0,0,1-1.93-1.35,3.65,3.65,0,0,1-.77-2.48,4.23,4.23,0,0,1,1.49-3.33,6.2,6.2,0,0,1,4.22-1.31,7.24,7.24,0,0,1,4.28,1.18,5.4,5.4,0,0,1,2,3.93h-1.91a3.52,3.52,0,0,0-1.43-2.64,5.23,5.23,0,0,0-3-.77,4.19,4.19,0,0,0-2.73.77,2.46,2.46,0,0,0-.94,2,2,2,0,0,0,.77,1.67,6.1,6.1,0,0,0,1.93,1c.77.24,1.6.45,2.5.64a12.08,12.08,0,0,1,2.51.8,5.5,5.5,0,0,1,1.93,1.39,3.61,3.61,0,0,1,.77,2.45,4.18,4.18,0,0,1-.5,2,4.47,4.47,0,0,1-1.38,1.49,6.41,6.41,0,0,1-2.09.89,11,11,0,0,1-2.65.3,7.18,7.18,0,0,1-2.55-.42,5.71,5.71,0,0,1-1.9-1.18,5.47,5.47,0,0,1-1.22-1.75,6.21,6.21,0,0,1-.5-2.17Z"/><path class="cls-1" d="M332.33,97.24a8.57,8.57,0,0,1-2.93-.56,6.62,6.62,0,0,1-2.38-1.6,7.7,7.7,0,0,1-1.62-2.67,10.81,10.81,0,0,1-.59-3.73,11.62,11.62,0,0,1,.47-3.34,7.86,7.86,0,0,1,1.41-2.71A6.76,6.76,0,0,1,329,80.8a8.49,8.49,0,0,1,6.61,0A6.77,6.77,0,0,1,338,82.62a7.49,7.49,0,0,1,1.39,2.71,12.05,12.05,0,0,1,.45,3.35,10.69,10.69,0,0,1-.53,3.51,7.74,7.74,0,0,1-1.52,2.7,6.76,6.76,0,0,1-2.38,1.74,7.58,7.58,0,0,1-3.09.61m5.52-8.56a11.47,11.47,0,0,0-.31-2.69,6.31,6.31,0,0,0-1-2.18,4.68,4.68,0,0,0-1.69-1.46,5.55,5.55,0,0,0-2.54-.53,5.1,5.1,0,0,0-2.52.58,5,5,0,0,0-1.71,1.53,6.76,6.76,0,0,0-1,2.2,10.29,10.29,0,0,0-.31,2.55,10.17,10.17,0,0,0,.36,2.78,6.6,6.6,0,0,0,1.05,2.18A4.82,4.82,0,0,0,330,95.05a5.44,5.44,0,0,0,2.38.5,5.25,5.25,0,0,0,2.53-.58,5.06,5.06,0,0,0,1.7-1.55,7,7,0,0,0,1-2.2,10.58,10.58,0,0,0,.31-2.54"/><path class="cls-1" d="M354.81,85.67a5.46,5.46,0,0,0-1.73-2.83,4.67,4.67,0,0,0-3.1-1,5,5,0,0,0-2.48.59A5,5,0,0,0,345.81,84a7.17,7.17,0,0,0-1,2.22,10.11,10.11,0,0,0-.31,2.49,11,11,0,0,0,.29,2.51,6.72,6.72,0,0,0,1,2.2A5,5,0,0,0,347.47,95a5.14,5.14,0,0,0,2.51.58,4.82,4.82,0,0,0,3.37-1.16,5.36,5.36,0,0,0,1.61-3.2h2a9.35,9.35,0,0,1-.8,2.46,6.28,6.28,0,0,1-1.41,1.91,5.9,5.9,0,0,1-2.05,1.24,8,8,0,0,1-2.73.44,7.82,7.82,0,0,1-3.35-.66,6.32,6.32,0,0,1-2.32-1.8A7.5,7.5,0,0,1,343,92.07a12.52,12.52,0,0,1-.44-3.36,10.6,10.6,0,0,1,.49-3.24,8.49,8.49,0,0,1,1.42-2.74,6.88,6.88,0,0,1,2.34-1.9,7,7,0,0,1,3.21-.7,7.29,7.29,0,0,1,4.56,1.34,6.25,6.25,0,0,1,2.18,4.2Z"/><path class="cls-1" d="M360.92,74.23H363V77h-2.07Zm.09,6.33h1.88V96.8H361Z"/><path class="cls-1" d="M375.15,87.33c.36,0,.78-.1,1.27-.18a5,5,0,0,0,1.21-.35,1,1,0,0,0,.58-.73,5,5,0,0,0,.11-1,3.21,3.21,0,0,0-.93-2.37,4.32,4.32,0,0,0-3.12-.92,9,9,0,0,0-1.78.17,3.84,3.84,0,0,0-1.43.6,3.2,3.2,0,0,0-1,1.12,4.85,4.85,0,0,0-.52,1.78h-1.91a5.73,5.73,0,0,1,.66-2.47,5.06,5.06,0,0,1,1.45-1.66,6.32,6.32,0,0,1,2.07-.94,10.11,10.11,0,0,1,2.49-.3,9.5,9.5,0,0,1,2.31.27,5.31,5.31,0,0,1,1.88.85,3.92,3.92,0,0,1,1.25,1.55,5.49,5.49,0,0,1,.46,2.38V94c0,.73.13,1.2.39,1.4s.79.15,1.58-.14v1.47l-.64.19a3,3,0,0,1-.83.12,4,4,0,0,1-.85-.09,1.42,1.42,0,0,1-.75-.3,1.74,1.74,0,0,1-.45-.56,2.16,2.16,0,0,1-.24-.73,5.4,5.4,0,0,1-.06-.83,8.26,8.26,0,0,1-2.73,2,8,8,0,0,1-3.32.69,7.3,7.3,0,0,1-2.05-.28,4.93,4.93,0,0,1-1.74-.88,4.36,4.36,0,0,1-1.2-1.46,4.49,4.49,0,0,1-.43-2.05q0-4.14,5.67-4.89Zm3.17,1a9.25,9.25,0,0,1-2.42.65c-.81.11-1.63.19-2.44.25a6.87,6.87,0,0,0-3.37,1,2.76,2.76,0,0,0-1.21,2.47,2.66,2.66,0,0,0,.3,1.3,2.76,2.76,0,0,0,.78.91,3.27,3.27,0,0,0,1.13.53,4.8,4.8,0,0,0,1.3.18,9,9,0,0,0,2.2-.28,5.85,5.85,0,0,0,1.89-.87,4.15,4.15,0,0,0,1.84-3.59Z"/><path class="cls-1" d="M390.82,96.86l-.91.22a4.41,4.41,0,0,1-1.25.16,3,3,0,0,1-2.15-.71,3.43,3.43,0,0,1-.73-2.52V82.13h-2.29V80.56h2.29V76.05h1.88v4.51h3v1.57h-3V93.26c0,.4,0,.74,0,1a1.58,1.58,0,0,0,.19.72.85.85,0,0,0,.48.41,2.55,2.55,0,0,0,.93.13,5.19,5.19,0,0,0,.77-.06l.76-.16Z"/><path class="cls-1" d="M394,74.23h2.07V77H394Zm.09,6.33H396V96.8h-1.89Z"/><path class="cls-1" d="M407.25,97.24a8.53,8.53,0,0,1-2.93-.56,6.66,6.66,0,0,1-2.39-1.6,7.83,7.83,0,0,1-1.61-2.67,10.57,10.57,0,0,1-.6-3.73,11.28,11.28,0,0,1,.48-3.34,7.86,7.86,0,0,1,1.41-2.71A6.67,6.67,0,0,1,404,80.8a7.52,7.52,0,0,1,3.29-.67,7.63,7.63,0,0,1,3.32.67,6.73,6.73,0,0,1,2.35,1.82,7.5,7.5,0,0,1,1.4,2.71,12.05,12.05,0,0,1,.45,3.35,11,11,0,0,1-.53,3.51,7.9,7.9,0,0,1-1.52,2.7,6.85,6.85,0,0,1-2.38,1.74,7.61,7.61,0,0,1-3.09.61m5.51-8.56a11,11,0,0,0-.31-2.69,6.3,6.3,0,0,0-1-2.18,4.68,4.68,0,0,0-1.69-1.46,5.58,5.58,0,0,0-2.54-.53,5.14,5.14,0,0,0-2.53.58,4.83,4.83,0,0,0-1.7,1.53,6.78,6.78,0,0,0-1,2.2,10.79,10.79,0,0,0-.31,2.55,10.17,10.17,0,0,0,.36,2.78,6.6,6.6,0,0,0,1.05,2.18,4.85,4.85,0,0,0,1.73,1.41,5.41,5.41,0,0,0,2.38.5,5.21,5.21,0,0,0,2.52-.58,5,5,0,0,0,1.71-1.55,7,7,0,0,0,1-2.2,10.1,10.1,0,0,0,.31-2.54"/><path class="cls-1" d="M420.1,96.8h-1.88V80.56h1.88v2.26a11.81,11.81,0,0,1,2.34-1.94,5.36,5.36,0,0,1,2.89-.76,7.45,7.45,0,0,1,2.79.52,4.82,4.82,0,0,1,2.17,1.81,4,4,0,0,1,.7,1.8,15,15,0,0,1,.11,1.93V96.8h-1.88V86.21a4.81,4.81,0,0,0-1-3.29,4.09,4.09,0,0,0-3.23-1.1,4.79,4.79,0,0,0-1.6.26,5.26,5.26,0,0,0-1.3.71,4.93,4.93,0,0,0-1,1,4.67,4.67,0,0,0-.62,1.19,6,6,0,0,0-.35,1.51c0,.48-.06,1-.06,1.57Z"/><polygon class="cls-4" points="154.73 97.07 183.25 27.06 183.24 97.07 154.73 97.07"/><polygon class="cls-5" points="125.9 1.42 125.98 27.34 154.73 27.09 154.73 97.07 183.25 27.06 194.58 1.43 125.9 1.42"/><polygon class="cls-6" points="262.41 97.07 236 97.07 229.09 79.69 190.24 79.69 183.24 97.07 183.25 28.57 183.25 27.07 183.88 27.07 209.42 27.09 196.75 59.62 221.58 59.62 209.42 27.09 209.52 1.44 209.61 1.44 225.87 1.42 262.41 97.07"/><polygon class="cls-4" points="209.52 1.44 209.61 1.44 209.61 1.44 209.61 1.43 194.58 1.43 183.25 27.06 209.41 27.09 209.52 1.44"/><path class="cls-7" d="M105.37,97H105c-9.41,0-14.55-.92-22.91-5.21-6.83-3.5-12.26-11.61-12.26-11.61l-.23-.32,0,0-.2-.3-.05-.07-.14-.24-.26-.35-.2-.32-.26-.44-.2-.36-.18-.33-.27-.5-.35-.68-.18-.34-.14-.26L67,75.32,66.78,75l-.18-.35-.29-.54-.13-.29L66,73.43,65.83,73l-.14-.33-.17-.39-.18-.39-.13-.3-.15-.41-.19-.52-.11-.3-.18-.5-.17-.45-.15-.4-.14-.41-.16-.5-.14-.48-.12-.4-.15-.5-.15-.5-.12-.5-.1-.4L63.09,65l-.1-.44-.11-.41-.12-.53-.07-.27,0-.24-.08-.49-.11-.64-.14-.76-.1-.55-.13-1.07-.1-.71-.08-.57-.08-.6L61.75,57l0-.59,0-.46-.05-.5,0-.48,0-.46,0-.45,0-.71,0-.62,0-.65v-.8l0-.57,0-.62V48l0-1,0-.51,0-.49v-.43l0-.45,0-.44,0-.54,0-.43,0-.47.06-.57,0-.47.05-.5,0-.52,0-.5.08-.61.1-.68.1-.73.13-.76.09-.53.11-.67.11-.61.18-.83.13-.58.13-.59.18-.75.23-.9.13-.45.13-.5.2-.63.21-.63.17-.56.17-.54.22-.58.18-.49.18-.48.19-.49.19-.49.22-.5.16-.39.18-.39.16-.36.19-.43.19-.39.22-.44.15-.29.18-.38.23-.41.32-.59.26-.46.24-.42.22-.37.32-.52.31-.5.25-.37.21-.3.22-.33.19-.29.27-.38.27-.37.22-.27.24-.32.24-.31.28-.36.29-.37.3-.39.23-.26.16-.18.33-.38.33-.37.32-.36.32.83L92.88,65l.22.57.12.3,1.68,4.5h0l.38,1,9.84,25Z"/><path class="cls-8" d="M126,27.34,125.9,1.41h0A88.84,88.84,0,0,0,109.37.46c-13.91.45-27.09,4.82-36,13.74l.3.81v0L92.88,65a4.82,4.82,0,0,1-.15-.46,51.88,51.88,0,0,1-2-13.38q0-17,5.36-23.59T111.25,21q9.52,0,15.07,6.72a19.51,19.51,0,0,1,2,3.06c.48.87,1.52,3.63,1.52,3.63a49.93,49.93,0,0,1,2,15.38c-.62,11.38-1.93,17.21-5.37,21.58S117.85,78,111.32,78C105,78,100,75.73,96.25,71.25a17.41,17.41,0,0,1-2-3.06s-.56-1.18-1-2.29l1.69,4.5h0l.38,1,9.84,25,.24.59c.87.06,4,.21,5.95.21q15.87,0,26.51-6c7.09-4,12.79-8.15,16.54-15.28.12-.22.25-.46.36-.69V27.09Z"/><path class="cls-9" d="M105.37,97H105c-9.41,0-14.55-.92-22.91-5.21-6.83-3.5-12.26-11.61-12.26-11.61l-.23-.32,0,0-.2-.3-.05-.07h0l-.14-.24-.26-.35-.2-.32-.26-.44-.2-.36-.18-.33-.27-.5-.35-.68-.18-.34-.14-.25L67,75.32,66.78,75l-.18-.35-.29-.54-.13-.29L66,73.43,65.83,73l-.14-.33-.17-.39-.18-.39-.13-.3-.15-.41-.19-.52-.11-.3-.18-.5-.17-.45-.15-.4-.14-.41-.16-.5-.14-.48-.12-.4-.15-.5-.15-.5-.12-.5-.1-.4L63.09,65l-.1-.44-.11-.41-.12-.53-.07-.27,0-.24-.08-.49-.11-.64-.14-.76-.1-.55-.13-1.07-.1-.71-.08-.57-.08-.6L61.75,57l0-.59,0-.46-.05-.5,0-.48,0-.46,0-.45,0-.71,0-.62,0-.65v-.8l0-.57,0-.62V48l0-1,0-.51,0-.48v-.44l0-.45,0-.44,0-.54,0-.43,0-.47.06-.57,0-.47.05-.5,0-.52,0-.5.08-.61.1-.68.1-.73.13-.76.09-.53.11-.67.11-.61.18-.83.13-.58.13-.59.18-.75.23-.9.13-.45.13-.5.2-.63.21-.63.17-.56.17-.54.22-.58.18-.49.18-.48.19-.49.19-.49.22-.5.16-.39.18-.39.16-.36.19-.43.19-.39.22-.44.15-.29.18-.38.23-.41.32-.59.26-.46.24-.42.22-.37.32-.52.31-.5.25-.37.21-.3.22-.33.19-.29.27-.38.27-.37.22-.27.24-.32.24-.31.28-.36.29-.37.3-.39.23-.26.16-.18.33-.38.33-.37.32-.36L67.73,1.43H36.25L0,97H25.22l6.46-17.16H69.47L75.08,95.1l.7,1.93Zm-65-37.39L52,27.09,62.08,59.62Z"/></g></g></svg>