<svg width="22" height="21" viewBox="0 0 22 21" fill="none" xmlns="http://www.w3.org/2000/svg">
<path d="M21.4529 17.9804L16.6248 13.152C17.4452 11.846 17.9213 10.3024 17.9213 8.64588C17.9213 3.95927 14.122 0.160522 9.43555 0.160522C4.74912 0.160522 0.950195 3.95927 0.950195 8.64588C0.950195 13.3327 4.74895 17.1311 9.43555 17.1311C11.2383 17.1311 12.9081 16.5674 14.2822 15.6098L19.0527 20.3807C19.3842 20.7118 19.8188 20.8768 20.2528 20.8768C20.6874 20.8768 21.1214 20.7118 21.4534 20.3807C22.1159 19.7175 22.1159 18.6433 21.4529 17.9804ZM9.43555 14.3819C6.26795 14.3819 3.69986 11.814 3.69986 8.64623C3.69986 5.47846 6.26795 2.91036 9.43555 2.91036C12.6033 2.91036 15.1712 5.47846 15.1712 8.64623C15.1712 11.814 12.6033 14.3819 9.43555 14.3819Z" fill="black"/>
</svg>
