<svg width="11" height="8" viewBox="0 0 11 8" fill="none" xmlns="http://www.w3.org/2000/svg">
<path d="M6.13548 7.30402L10.7317 2.70091C10.9106 2.53139 11 2.31971 11 2.06544C11 1.81118 10.9105 1.5995 10.7317 1.42998L10.2021 0.893406C10.028 0.719214 9.81626 0.632118 9.5668 0.632118C9.32205 0.632118 9.10782 0.719189 8.92431 0.893406L5.49999 4.32465L2.06862 0.893258C1.89445 0.719115 1.68274 0.632019 1.43325 0.632019C1.18853 0.632019 0.97423 0.71909 0.790789 0.893258L0.261263 1.42988C0.0870953 1.60405 2.47955e-05 1.81595 2.47955e-05 2.06535C2.47955e-05 2.31484 0.0870953 2.52669 0.261263 2.70081L4.85752 7.30402C5.04109 7.47826 5.25527 7.56543 5.50001 7.56543C5.74948 7.56546 5.96131 7.47826 6.13548 7.30402Z" fill="black"/>
</svg>
