<svg
  width="214"
  height="16"
  viewBox="0 0 214 16"
  fill="none"
  preserveAspectRatio="none"
  xmlns="http://www.w3.org/2000/svg"
>
  <path
    fill-rule="evenodd"
    clip-rule="evenodd"
    d="M213.107 13.2603C211.501 12.9427 209.898 12.5318 208.275 12.3155C206.476 12.0759 204.643 11.9319 202.856 11.6201C201.187 11.3288 199.573 11.0105 197.88 10.8268C196.081 10.6315 194.281 10.4473 192.486 10.225C190.903 10.0291 189.317 9.85463 187.728 9.69548C191.512 9.81732 195.278 10.1156 199.065 10.1281C202.847 10.1403 206.627 10.3418 210.408 10.3C211.635 10.2865 211.982 8.44857 210.707 8.19785C207.421 7.55204 204.091 7.12848 200.783 6.60001C197.376 6.05586 193.988 5.60147 190.549 5.28118C187.163 4.96612 183.792 4.54129 180.402 4.2511C177.154 3.97299 173.905 3.723 170.652 3.5022C157.238 2.59198 143.805 1.85353 130.366 1.37716C103.47 0.423679 76.5453 0.213878 49.6365 0.748294C34.5437 1.04804 19.4525 1.55541 4.41561 2.85568C3.23358 2.95787 2.2181 3.74553 2.2181 4.95098C2.2181 6.07461 3.22368 7.06197 4.41561 7.04611C14.8237 6.90804 25.2259 6.6101 35.6306 6.34983C32.0648 6.48682 28.4998 6.64471 24.9351 6.83018C21.0362 7.03313 17.1566 7.31016 13.2672 7.6391C9.41072 7.96534 5.5636 8.58122 1.72945 9.09437C0.459198 9.26452 0.823618 11.1387 2.02365 11.1671C8.97681 11.3317 15.8965 11.484 22.8511 11.2964C29.6609 11.1127 36.4724 10.9528 43.2831 10.8056C57.0522 10.5084 70.8246 10.4318 84.5967 10.5033C111.993 10.6455 139.382 11.6131 166.723 13.2641C174.343 13.7242 181.957 14.3201 189.58 14.7266C191.517 14.8298 193.455 14.865 195.391 14.9791C197.318 15.0926 199.268 15.3158 201.198 15.2208C203.129 15.126 205.072 15.3064 207.001 15.4086C208.935 15.5111 210.864 15.4317 212.8 15.4217C214.066 15.4153 214.415 13.5189 213.107 13.2603Z"
    fill="#E94429"/>
</svg>
